<svg width="188" height="64" viewBox="0 0 188 64" fill="none" xmlns="http://www.w3.org/2000/svg">
<path d="M160.566 23.8334C160.332 15.0006 163.692 7.97749 172.829 7.18515C174.572 7.18102 176.249 7.45603 177.859 8.01015C179.469 8.56436 179.747 8.6484 181.241 9.81086L186.219 4.63341C184.352 3.16124 182.352 2.03903 180.218 1.26676C178.084 0.494588 175.479 0.105698 172.401 0.100098C166.754 0.122354 161.988 2.14458 158.103 6.16674C154.218 10.189 152.194 16.0779 152.031 23.8334C152.144 31.5917 154.073 37.4916 157.818 41.5333C161.563 45.5749 166.448 47.6083 172.472 47.6333C175.875 47.5902 178.756 47.0763 181.117 46.0916C183.478 45.1069 185.416 43.9097 186.931 42.5L183.441 38.3666C168.899 45.2331 160.814 35.89 160.566 23.8334Z" fill="white"/>
<path d="M101.798 7.84746V0.0878906H76.6406V47.6483H101.798V39.5745H84.9876V26.1115H100.756V18.2586H84.9876V7.84746H101.798Z" fill="white"/>
<path d="M132.608 47.733V0H124.162V47.733H132.608Z" fill="white"/>
<path d="M79.887 62.3973H76.2625V56.7554H79.887V57.4222H76.994V58.9682H79.887V59.6351H76.994V61.7304H79.887V62.3973Z" fill="white"/>
<path d="M83.9436 61.1771C83.9436 61.5636 83.7871 61.8806 83.4743 62.1282C83.164 62.3757 82.7391 62.4995 82.1996 62.4995C81.8942 62.4995 81.6134 62.4629 81.3572 62.3896C81.1035 62.3138 80.8904 62.2317 80.718 62.1433V61.3438H80.755C80.9742 61.5131 81.218 61.6482 81.4865 61.7493C81.755 61.8478 82.0124 61.897 82.2587 61.897C82.5642 61.897 82.8031 61.8465 82.9755 61.7455C83.148 61.6444 83.2342 61.4853 83.2342 61.268C83.2342 61.1013 83.1874 60.975 83.0938 60.8891C83.0002 60.8032 82.8203 60.73 82.5543 60.6694C82.4558 60.6466 82.3265 60.6201 82.1664 60.5898C82.0087 60.5595 81.8646 60.5266 81.7341 60.4913C81.372 60.3928 81.1146 60.2488 80.9619 60.0593C80.8116 59.8674 80.7365 59.6324 80.7365 59.3546C80.7365 59.1803 80.771 59.0161 80.8399 58.862C80.9114 58.7079 81.0185 58.5702 81.1614 58.449C81.2993 58.3303 81.4742 58.2368 81.686 58.1686C81.9003 58.0979 82.1393 58.0625 82.4028 58.0625C82.6492 58.0625 82.8979 58.0941 83.1492 58.1572C83.4029 58.2178 83.6135 58.2924 83.781 58.3808V59.1424H83.744C83.5667 59.0085 83.3512 58.8961 83.0975 58.8052C82.8437 58.7117 82.595 58.665 82.3511 58.665C82.0974 58.665 81.8831 58.7155 81.7082 58.8165C81.5333 58.915 81.4459 59.0628 81.4459 59.2598C81.4459 59.4341 81.4989 59.5655 81.6048 59.6539C81.7082 59.7423 81.8757 59.8143 82.1073 59.8699C82.2353 59.9002 82.3782 59.9305 82.5358 59.9608C82.696 59.9911 82.829 60.0189 82.9349 60.0442C83.2576 60.12 83.5063 60.25 83.6812 60.4344C83.8561 60.6214 83.9436 60.8689 83.9436 61.1771Z" fill="white"/>
<path d="M88.5731 60.2299C88.5731 60.5734 88.5251 60.8879 88.429 61.1733C88.333 61.4563 88.1975 61.6962 88.0226 61.8933C87.86 62.0802 87.6679 62.2254 87.4462 62.329C87.227 62.43 86.9942 62.4806 86.7479 62.4806C86.5336 62.4806 86.339 62.4566 86.1641 62.4086C85.9917 62.3606 85.8156 62.2861 85.6358 62.185V63.9583H84.9412V58.1648H85.6358V58.6081C85.8205 58.449 86.0274 58.3164 86.2565 58.2103C86.488 58.1017 86.7344 58.0474 86.9955 58.0474C87.493 58.0474 87.8798 58.2406 88.1556 58.6271C88.434 59.011 88.5731 59.5453 88.5731 60.2299ZM87.8564 60.2488C87.8564 59.7385 87.7714 59.3571 87.6014 59.1045C87.4315 58.8519 87.1704 58.7256 86.8181 58.7256C86.6186 58.7256 86.4178 58.7698 86.2159 58.8582C86.0139 58.9466 85.8205 59.0628 85.6358 59.2068V61.6053C85.8328 61.6962 86.0016 61.7581 86.142 61.7909C86.2848 61.8238 86.4462 61.8402 86.626 61.8402C87.0127 61.8402 87.3144 61.7063 87.5312 61.4386C87.748 61.1708 87.8564 60.7742 87.8564 60.2488Z" fill="white"/>
<path d="M92.8633 62.3972H92.1724V61.9463C92.1108 61.9892 92.027 62.0499 91.9211 62.1282C91.8177 62.204 91.7167 62.2646 91.6181 62.3101C91.5024 62.3682 91.3694 62.4161 91.2191 62.454C91.0688 62.4945 90.8927 62.5147 90.6908 62.5147C90.3188 62.5147 90.0035 62.3884 89.7449 62.1358C89.4863 61.8832 89.3569 61.5611 89.3569 61.1695C89.3569 60.8487 89.4234 60.5898 89.5565 60.3928C89.6919 60.1932 89.8841 60.0366 90.1328 59.9229C90.3841 59.8093 90.6858 59.7322 91.0381 59.6918C91.3903 59.6514 91.7684 59.6211 92.1724 59.6009V59.491C92.1724 59.3293 92.144 59.1954 92.0874 59.0893C92.0332 58.9832 91.9544 58.8999 91.8509 58.8393C91.7524 58.7812 91.6341 58.742 91.4962 58.7218C91.3583 58.7016 91.2142 58.6915 91.0639 58.6915C90.8816 58.6915 90.6784 58.7167 90.4543 58.7673C90.2301 58.8153 89.9986 58.886 89.7597 58.9795H89.7227V58.2557C89.8582 58.2179 90.054 58.1762 90.3102 58.1307C90.5664 58.0852 90.8188 58.0625 91.0676 58.0625C91.3583 58.0625 91.6108 58.0878 91.825 58.1383C92.0418 58.1863 92.229 58.2696 92.3867 58.3884C92.5418 58.5046 92.6601 58.6549 92.7414 58.8393C92.8226 59.0237 92.8633 59.2523 92.8633 59.5251V62.3972ZM92.1724 61.3552V60.1768C91.9605 60.1894 91.7105 60.2084 91.4223 60.2336C91.1366 60.2589 90.91 60.2955 90.7425 60.3435C90.543 60.4016 90.3816 60.4926 90.2585 60.6163C90.1353 60.7376 90.0737 60.9056 90.0737 61.1203C90.0737 61.3628 90.1452 61.5459 90.288 61.6697C90.4309 61.791 90.6489 61.8516 90.942 61.8516C91.1859 61.8516 91.4088 61.8036 91.6107 61.7076C91.8127 61.6091 91.9999 61.4916 92.1724 61.3552Z" fill="white"/>
<path d="M97.2598 62.1321C97.1785 62.1699 97.0899 62.2091 96.9938 62.2495C96.9002 62.2874 96.8177 62.3177 96.7462 62.3405C96.7536 62.3884 96.7598 62.4478 96.7647 62.5185C96.7721 62.5918 96.7758 62.6638 96.7758 62.7345C96.7758 63.1437 96.6625 63.4569 96.4359 63.6742C96.2117 63.8914 95.9198 64 95.5602 64C95.4691 64 95.3521 63.9912 95.2092 63.9735C95.0663 63.9558 94.9395 63.9318 94.8286 63.9015V63.2953H94.8619C94.9259 63.3205 95.0122 63.3496 95.1205 63.3824C95.2289 63.4153 95.3447 63.4317 95.4678 63.4317C95.724 63.4317 95.9124 63.3824 96.0331 63.2839C96.1538 63.1854 96.2142 63.025 96.2142 62.8027C96.2142 62.7471 96.2117 62.6903 96.2068 62.6322C96.2043 62.5741 96.2007 62.5198 96.1957 62.4693C96.1563 62.4743 96.1181 62.4794 96.0812 62.4844C96.0467 62.4895 95.9987 62.492 95.9371 62.492C95.639 62.492 95.3656 62.4478 95.1169 62.3594C94.8681 62.2684 94.655 62.132 94.4777 61.9502C94.2978 61.7683 94.1587 61.5384 94.0601 61.2605C93.9616 60.9827 93.9124 60.6581 93.9124 60.2868C93.9124 59.5946 94.0971 59.0516 94.4666 58.6575C94.8385 58.2634 95.3287 58.0664 95.9371 58.0664C96.1736 58.0664 96.4051 58.1005 96.6317 58.1687C96.8608 58.2369 97.0702 58.3203 97.2598 58.4188V59.2107H97.2229C97.0111 59.0414 96.7918 58.9114 96.5652 58.8204C96.3411 58.7295 96.1218 58.684 95.9075 58.684C95.5134 58.684 95.2018 58.8204 94.9728 59.0932C94.7461 59.3635 94.6328 59.7614 94.6328 60.2868C94.6328 60.797 94.7437 61.1898 94.9654 61.4652C95.1895 61.738 95.5036 61.8744 95.9075 61.8744C96.0479 61.8744 96.1908 61.8554 96.3361 61.8175C96.4815 61.7796 96.612 61.7304 96.7278 61.6698C96.8288 61.6167 96.9236 61.5611 97.0123 61.503C97.101 61.4424 97.1712 61.3906 97.2229 61.3477H97.2598L97.2598 62.1321Z" fill="white"/>
<path d="M101.672 60.2829C101.672 60.9725 101.499 61.5169 101.154 61.916C100.81 62.3151 100.348 62.5147 99.7688 62.5147C99.185 62.5147 98.7207 62.3151 98.3759 61.916C98.0335 61.5169 97.8623 60.9725 97.8623 60.2829C97.8623 59.5933 98.0335 59.0489 98.3759 58.6498C98.7207 58.2482 99.185 58.0474 99.7688 58.0474C100.348 58.0474 100.81 58.2482 101.154 58.6498C101.499 59.0489 101.672 59.5933 101.672 60.2829ZM100.955 60.2829C100.955 59.7348 100.85 59.3281 100.641 59.0628C100.431 58.7951 100.141 58.6612 99.7688 58.6612C99.3919 58.6612 99.0988 58.7951 98.8895 59.0628C98.6826 59.3281 98.5791 59.7348 98.5791 60.2829C98.5791 60.8134 98.6838 61.2163 98.8931 61.4916C99.1025 61.7645 99.3944 61.9009 99.7688 61.9009C100.138 61.9009 100.428 61.7657 100.637 61.4954C100.849 61.2226 100.955 60.8184 100.955 60.2829Z" fill="white"/>
<path d="M107.406 62.3973H105.233V61.8214H105.954V57.3313H105.233V56.7554H107.406V57.3313H106.685V61.8214H107.406V62.3973Z" fill="white"/>
<path d="M112.054 62.3972H111.359V59.9874C111.359 59.7929 111.348 59.611 111.326 59.4417C111.304 59.27 111.263 59.1361 111.204 59.0401C111.143 58.934 111.054 58.8557 110.938 58.8052C110.822 58.7521 110.672 58.7256 110.487 58.7256C110.298 58.7256 110.099 58.7736 109.893 58.8696C109.686 58.9656 109.487 59.0881 109.298 59.2371V62.3972H108.603V58.1648H109.298V58.6347C109.514 58.4503 109.739 58.3063 109.97 58.2027C110.202 58.0992 110.439 58.0474 110.683 58.0474C111.129 58.0474 111.469 58.185 111.703 58.4604C111.937 58.7357 112.054 59.1323 112.054 59.6501V62.3972Z" fill="white"/>
<path d="M115.534 62.3594C115.403 62.3948 115.261 62.4238 115.105 62.4466C114.953 62.4693 114.816 62.4807 114.695 62.4807C114.274 62.4807 113.954 62.3645 113.735 62.1321C113.515 61.8997 113.406 61.5271 113.406 61.0143V58.7637H112.937V58.165H113.406V56.9487H114.1V58.165H115.534V58.7637H114.1V60.6923C114.1 60.9145 114.105 61.0888 114.115 61.2151C114.125 61.3389 114.159 61.4551 114.219 61.5637C114.273 61.6648 114.347 61.7393 114.44 61.7873C114.536 61.8327 114.682 61.8555 114.876 61.8555C114.99 61.8555 115.108 61.8391 115.231 61.8062C115.354 61.7709 115.443 61.7418 115.497 61.7191H115.534V62.3594Z" fill="white"/>
<path d="M119.831 60.3549H116.791C116.791 60.6151 116.829 60.8424 116.905 61.0369C116.982 61.2289 117.086 61.3868 117.219 61.5105C117.347 61.6318 117.499 61.7227 117.674 61.7834C117.851 61.844 118.046 61.8743 118.258 61.8743C118.538 61.8743 118.82 61.8175 119.104 61.7038C119.389 61.5876 119.593 61.4739 119.713 61.3628H119.75V62.1395C119.516 62.2406 119.277 62.3252 119.033 62.3934C118.79 62.4616 118.533 62.4957 118.265 62.4957C117.58 62.4957 117.046 62.3062 116.661 61.9273C116.277 61.5459 116.085 61.0053 116.085 60.3056C116.085 59.6135 116.268 59.0641 116.635 58.6574C117.005 58.2507 117.49 58.0474 118.091 58.0474C118.648 58.0474 119.077 58.2141 119.377 58.5475C119.68 58.881 119.831 59.3546 119.831 59.9684V60.3549ZM119.155 59.8093C119.153 59.4354 119.061 59.1462 118.878 58.9416C118.698 58.737 118.424 58.6347 118.054 58.6347C117.682 58.6347 117.386 58.7471 117.164 58.9719C116.945 59.1967 116.82 59.4758 116.791 59.8093H119.155Z" fill="white"/>
<path d="M123.46 58.9418H123.423C123.319 58.9165 123.218 58.8989 123.12 58.8887C123.024 58.8761 122.909 58.8698 122.776 58.8698C122.562 58.8698 122.355 58.9191 122.156 59.0176C121.956 59.1136 121.764 59.2386 121.579 59.3927V62.3975H120.885V58.165H121.579V58.7902C121.855 58.5629 122.098 58.4025 122.307 58.309C122.519 58.213 122.734 58.165 122.954 58.165C123.074 58.165 123.162 58.1688 123.216 58.1764C123.27 58.1814 123.351 58.1928 123.46 58.2105V58.9418Z" fill="white"/>
<path d="M127.195 62.3972H126.504V61.9463C126.442 61.9892 126.358 62.0499 126.252 62.1282C126.149 62.204 126.048 62.2646 125.949 62.3101C125.834 62.3682 125.701 62.4161 125.55 62.454C125.4 62.4945 125.224 62.5147 125.022 62.5147C124.65 62.5147 124.335 62.3884 124.076 62.1358C123.818 61.8832 123.688 61.5611 123.688 61.1695C123.688 60.8487 123.755 60.5898 123.888 60.3928C124.023 60.1932 124.215 60.0366 124.464 59.9229C124.715 59.8093 125.017 59.7322 125.369 59.6918C125.722 59.6514 126.1 59.6211 126.504 59.6009V59.491C126.504 59.3293 126.475 59.1954 126.419 59.0893C126.364 58.9832 126.286 58.8999 126.182 58.8393C126.084 58.7812 125.965 58.742 125.828 58.7218C125.69 58.7016 125.545 58.6915 125.395 58.6915C125.213 58.6915 125.01 58.7167 124.786 58.7673C124.561 58.8153 124.33 58.886 124.091 58.9795H124.054V58.2557C124.189 58.2179 124.385 58.1762 124.641 58.1307C124.898 58.0852 125.15 58.0625 125.399 58.0625C125.69 58.0625 125.942 58.0878 126.156 58.1383C126.373 58.1863 126.56 58.2696 126.718 58.3884C126.873 58.5046 126.991 58.6549 127.073 58.8393C127.154 59.0237 127.195 59.2523 127.195 59.5251V62.3972ZM126.504 61.3552V60.1768C126.292 60.1894 126.042 60.2084 125.754 60.2336C125.468 60.2589 125.241 60.2955 125.074 60.3435C124.874 60.4016 124.713 60.4926 124.59 60.6163C124.467 60.7376 124.405 60.9056 124.405 61.1203C124.405 61.3628 124.476 61.5459 124.619 61.6697C124.762 61.791 124.98 61.8516 125.273 61.8516C125.517 61.8516 125.74 61.8036 125.942 61.7076C126.144 61.6091 126.331 61.4916 126.504 61.3552Z" fill="white"/>
<path d="M130.683 62.3594C130.552 62.3948 130.409 62.4238 130.254 62.4466C130.101 62.4693 129.965 62.4807 129.844 62.4807C129.423 62.4807 129.102 62.3645 128.883 62.1321C128.664 61.8997 128.554 61.5271 128.554 61.0143V58.7637H128.085V58.165H128.554V56.9487H129.249V58.165H130.683V58.7637H129.249V60.6923C129.249 60.9145 129.254 61.0888 129.264 61.2151C129.274 61.3389 129.308 61.4551 129.367 61.5637C129.421 61.6648 129.495 61.7393 129.589 61.7873C129.685 61.8327 129.83 61.8555 130.025 61.8555C130.138 61.8555 130.256 61.8391 130.38 61.8062C130.503 61.7709 130.591 61.7418 130.646 61.7191H130.683L130.683 62.3594Z" fill="white"/>
<path d="M132.271 57.4562H131.488V56.7173H132.271V57.4562ZM132.227 62.3971H131.532V58.1647H132.227V62.3971Z" fill="white"/>
<path d="M137.179 58.165L135.509 62.3975H134.81L133.151 58.165H133.905L135.183 61.5336L136.451 58.165H137.179Z" fill="white"/>
<path d="M141.545 60.2829C141.545 60.9725 141.373 61.5169 141.028 61.916C140.683 62.3151 140.221 62.5147 139.643 62.5147C139.059 62.5147 138.595 62.3151 138.25 61.916C137.907 61.5169 137.736 60.9725 137.736 60.2829C137.736 59.5933 137.907 59.0489 138.25 58.6498C138.595 58.2482 139.059 58.0474 139.643 58.0474C140.221 58.0474 140.683 58.2482 141.028 58.6498C141.373 59.0489 141.545 59.5933 141.545 60.2829ZM140.829 60.2829C140.829 59.7348 140.724 59.3281 140.515 59.0628C140.305 58.7951 140.015 58.6612 139.643 58.6612C139.266 58.6612 138.973 58.7951 138.763 59.0628C138.556 59.3281 138.453 59.7348 138.453 60.2829C138.453 60.8134 138.558 61.2163 138.767 61.4916C138.976 61.7645 139.268 61.9009 139.643 61.9009C140.012 61.9009 140.301 61.7657 140.511 61.4954C140.723 61.2226 140.829 60.8184 140.829 60.2829Z" fill="white"/>
<path d="M148.632 62.3973H147.937V61.954C147.738 62.1308 147.529 62.2685 147.313 62.367C147.096 62.4655 146.861 62.5147 146.607 62.5147C146.114 62.5147 145.723 62.3202 145.432 61.9312C145.144 61.5422 145 61.0029 145 60.3133C145 59.9546 145.049 59.635 145.148 59.3546C145.249 59.0743 145.384 58.8355 145.554 58.6385C145.721 58.4465 145.916 58.3 146.138 58.199C146.362 58.0979 146.593 58.0474 146.832 58.0474C147.049 58.0474 147.241 58.0714 147.409 58.1194C147.576 58.1649 147.752 58.2369 147.937 58.3354V56.5015H148.632V62.3973ZM147.937 61.3553V58.9265C147.75 58.8406 147.582 58.7812 147.435 58.7484C147.287 58.7156 147.125 58.6991 146.951 58.6991C146.561 58.6991 146.258 58.8381 146.042 59.1159C145.825 59.3938 145.717 59.7879 145.717 60.2981C145.717 60.8008 145.8 61.1835 145.968 61.4462C146.135 61.7064 146.404 61.8365 146.773 61.8365C146.97 61.8365 147.17 61.7923 147.372 61.7039C147.574 61.6129 147.762 61.4967 147.937 61.3553Z" fill="white"/>
<path d="M153.454 60.3549H150.413C150.413 60.6151 150.451 60.8424 150.527 61.0369C150.604 61.2289 150.708 61.3868 150.841 61.5105C150.969 61.6318 151.121 61.7227 151.296 61.7834C151.473 61.844 151.668 61.8743 151.88 61.8743C152.16 61.8743 152.442 61.8175 152.726 61.7038C153.011 61.5876 153.215 61.4739 153.335 61.3628H153.372V62.1395C153.138 62.2406 152.899 62.3252 152.655 62.3934C152.412 62.4616 152.155 62.4957 151.887 62.4957C151.202 62.4957 150.668 62.3062 150.283 61.9273C149.899 61.5459 149.707 61.0053 149.707 60.3056C149.707 59.6135 149.891 59.0641 150.258 58.6574C150.627 58.2507 151.112 58.0474 151.713 58.0474C152.27 58.0474 152.699 58.2141 152.999 58.5475C153.302 58.881 153.454 59.3546 153.454 59.9684V60.3549ZM152.777 59.8093C152.775 59.4354 152.683 59.1462 152.5 58.9416C152.32 58.737 152.046 58.6347 151.676 58.6347C151.304 58.6347 151.008 58.7471 150.786 58.9719C150.567 59.1967 150.442 59.4758 150.413 59.8093H152.777Z" fill="white"/>
<path d="M161.471 61.9883C161.336 62.0489 161.213 62.1057 161.102 62.1588C160.994 62.2118 160.851 62.2674 160.673 62.3255C160.523 62.3735 160.359 62.4139 160.182 62.4468C160.007 62.4821 159.814 62.4998 159.602 62.4998C159.203 62.4998 158.84 62.443 158.512 62.3293C158.187 62.2131 157.904 62.0325 157.662 61.7875C157.426 61.5475 157.241 61.2431 157.108 60.8743C156.975 60.503 156.908 60.0723 156.908 59.5822C156.908 59.1175 156.972 58.7019 157.101 58.3357C157.229 57.9694 157.413 57.6599 157.655 57.4073C157.889 57.1623 158.171 56.9754 158.501 56.8466C158.833 56.7177 159.202 56.6533 159.606 56.6533C159.901 56.6533 160.196 56.6899 160.489 56.7632C160.784 56.8365 161.112 56.9653 161.471 57.1497V58.0401H161.416C161.113 57.7799 160.813 57.5905 160.515 57.4718C160.216 57.353 159.898 57.2937 159.558 57.2937C159.279 57.2937 159.028 57.3404 158.804 57.4339C158.582 57.5248 158.384 57.6675 158.209 57.862C158.039 58.0515 157.906 58.2914 157.81 58.5819C157.716 58.8699 157.67 59.2033 157.67 59.5822C157.67 59.9788 157.721 60.3198 157.825 60.6053C157.931 60.8907 158.066 61.1231 158.231 61.3025C158.404 61.4894 158.604 61.6283 158.833 61.7193C159.065 61.8077 159.309 61.8519 159.565 61.8519C159.917 61.8519 160.247 61.79 160.555 61.6662C160.863 61.5424 161.151 61.3568 161.42 61.1092H161.471V61.9883Z" fill="white"/>
<path d="M163.204 57.4562H162.421V56.7173H163.204V57.4562ZM163.16 62.3971H162.465V58.1647H163.16V62.3971Z" fill="white"/>
<path d="M167.996 60.355H164.955C164.955 60.6152 164.994 60.8425 165.07 61.0371C165.146 61.229 165.251 61.3869 165.384 61.5107C165.512 61.6319 165.664 61.7229 165.839 61.7835C166.016 61.8441 166.21 61.8744 166.422 61.8744C166.703 61.8744 166.985 61.8176 167.268 61.7039C167.554 61.5877 167.757 61.4741 167.878 61.3629H167.915V62.1397C167.681 62.2407 167.442 62.3253 167.198 62.3935C166.954 62.4617 166.698 62.4958 166.43 62.4958C165.745 62.4958 165.21 62.3064 164.826 61.9275C164.442 61.546 164.25 61.0055 164.25 60.3058C164.25 59.6136 164.433 59.0642 164.8 58.6575C165.17 58.2508 165.655 58.0475 166.256 58.0475C166.813 58.0475 167.241 58.2142 167.542 58.5476C167.845 58.8811 167.996 59.3547 167.996 59.9685V60.355ZM167.32 59.8094C167.318 59.4355 167.225 59.1463 167.043 58.9417C166.863 58.7371 166.589 58.6348 166.219 58.6348C165.847 58.6348 165.55 58.7472 165.329 58.972C165.109 59.1968 164.985 59.476 164.955 59.8094H167.32ZM167.501 57.4829H166.914L166.23 56.5129L165.55 57.4829H164.978L165.82 56.0469H166.659L167.501 57.4829Z" fill="white"/>
<path d="M172.5 62.3972H171.806V59.9874C171.806 59.7929 171.795 59.611 171.773 59.4417C171.75 59.27 171.71 59.1361 171.651 59.0401C171.589 58.934 171.5 58.8557 171.385 58.8052C171.269 58.7521 171.119 58.7256 170.934 58.7256C170.744 58.7256 170.546 58.7736 170.339 58.8696C170.132 58.9656 169.934 59.0881 169.744 59.2371V62.3972H169.05V58.1648H169.744V58.6347C169.961 58.4503 170.185 58.3063 170.417 58.2027C170.648 58.0992 170.886 58.0474 171.13 58.0474C171.576 58.0474 171.915 58.185 172.149 58.4604C172.383 58.7357 172.5 59.1323 172.5 59.6501V62.3972Z" fill="white"/>
<path d="M176.889 62.1321C176.658 62.2458 176.437 62.3342 176.228 62.3973C176.021 62.4605 175.8 62.492 175.566 62.492C175.268 62.492 174.995 62.4478 174.746 62.3594C174.497 62.2685 174.284 62.1321 174.107 61.9502C173.927 61.7683 173.788 61.5385 173.69 61.2606C173.591 60.9827 173.542 60.6581 173.542 60.2868C173.542 59.5947 173.726 59.0516 174.096 58.6575C174.468 58.2634 174.958 58.0664 175.566 58.0664C175.803 58.0664 176.034 58.1005 176.261 58.1687C176.49 58.2369 176.7 58.3203 176.889 58.4188V59.2107H176.852C176.64 59.0415 176.421 58.9114 176.195 58.8204C175.97 58.7295 175.751 58.684 175.537 58.684C175.143 58.684 174.831 58.8204 174.602 59.0932C174.376 59.3635 174.262 59.7614 174.262 60.2868C174.262 60.7971 174.373 61.1899 174.595 61.4652C174.819 61.738 175.133 61.8744 175.537 61.8744C175.677 61.8744 175.82 61.8555 175.966 61.8176C176.111 61.7797 176.241 61.7304 176.357 61.6698C176.458 61.6168 176.553 61.5612 176.642 61.5031C176.73 61.4425 176.801 61.3907 176.852 61.3477H176.889V62.1321Z" fill="white"/>
<path d="M178.53 57.4562H177.747V56.7173H178.53V57.4562ZM178.486 62.3971H177.791V58.1647H178.486V62.3971Z" fill="white"/>
<path d="M183.075 62.3972H182.384V61.9463C182.322 61.9892 182.238 62.0499 182.133 62.1282C182.029 62.204 181.928 62.2646 181.83 62.3101C181.714 62.3682 181.581 62.4161 181.431 62.454C181.28 62.4945 181.104 62.5147 180.902 62.5147C180.53 62.5147 180.215 62.3884 179.956 62.1358C179.698 61.8832 179.568 61.5611 179.568 61.1695C179.568 60.8487 179.635 60.5898 179.768 60.3928C179.903 60.1932 180.095 60.0366 180.344 59.9229C180.595 59.8093 180.897 59.7322 181.249 59.6918C181.602 59.6514 181.98 59.6211 182.384 59.6009V59.491C182.384 59.3293 182.355 59.1954 182.299 59.0893C182.245 58.9832 182.166 58.8999 182.062 58.8393C181.964 58.7812 181.846 58.742 181.708 58.7218C181.57 58.7016 181.426 58.6915 181.275 58.6915C181.093 58.6915 180.89 58.7167 180.666 58.7673C180.442 58.8153 180.21 58.886 179.971 58.9795H179.934V58.2557C180.07 58.2179 180.265 58.1762 180.522 58.1307C180.778 58.0852 181.03 58.0625 181.279 58.0625C181.57 58.0625 181.822 58.0878 182.036 58.1383C182.253 58.1863 182.44 58.2696 182.598 58.3884C182.753 58.5046 182.871 58.6549 182.953 58.8393C183.034 59.0237 183.075 59.2523 183.075 59.5251V62.3972ZM182.384 61.3552V60.1768C182.172 60.1894 181.922 60.2084 181.634 60.2336C181.348 60.2589 181.121 60.2955 180.954 60.3435C180.754 60.4016 180.593 60.4926 180.47 60.6163C180.347 60.7376 180.285 60.9056 180.285 61.1203C180.285 61.3628 180.357 61.5459 180.499 61.6697C180.642 61.791 180.86 61.8516 181.153 61.8516C181.397 61.8516 181.62 61.8036 181.822 61.7076C182.024 61.6091 182.211 61.4916 182.384 61.3552Z" fill="white"/>
<path d="M187.368 61.1771C187.368 61.5636 187.212 61.8806 186.899 62.1282C186.589 62.3757 186.164 62.4995 185.624 62.4995C185.319 62.4995 185.038 62.4629 184.782 62.3896C184.528 62.3138 184.315 62.2317 184.143 62.1433V61.3438H184.18C184.399 61.5131 184.643 61.6482 184.911 61.7493C185.18 61.8478 185.437 61.897 185.684 61.897C185.989 61.897 186.228 61.8465 186.4 61.7455C186.573 61.6444 186.659 61.4853 186.659 61.268C186.659 61.1013 186.612 60.975 186.519 60.8891C186.425 60.8032 186.245 60.73 185.979 60.6694C185.881 60.6466 185.751 60.6201 185.591 60.5898C185.434 60.5595 185.289 60.5266 185.159 60.4913C184.797 60.3928 184.539 60.2488 184.387 60.0593C184.236 59.8674 184.161 59.6324 184.161 59.3546C184.161 59.1803 184.196 59.0161 184.265 58.862C184.336 58.7079 184.443 58.5702 184.586 58.449C184.724 58.3303 184.899 58.2368 185.111 58.1686C185.325 58.0979 185.564 58.0625 185.828 58.0625C186.074 58.0625 186.323 58.0941 186.574 58.1572C186.828 58.2178 187.038 58.2924 187.206 58.3808V59.1424H187.169C186.991 59.0085 186.776 58.8961 186.522 58.8052C186.269 58.7117 186.02 58.665 185.776 58.665C185.522 58.665 185.308 58.7155 185.133 58.8165C184.958 58.915 184.871 59.0628 184.871 59.2598C184.871 59.4341 184.924 59.5655 185.03 59.6539C185.133 59.7423 185.301 59.8143 185.532 59.8699C185.66 59.9002 185.803 59.9305 185.961 59.9608C186.121 59.9911 186.254 60.0189 186.36 60.0442C186.682 60.12 186.931 60.25 187.106 60.4344C187.281 60.6214 187.368 60.8689 187.368 61.1771Z" fill="white"/>
<path d="M0 0.368652V63.9778H67.871V0.368652H0ZM33.9011 4.34423C36.1818 4.34423 38.0873 6.81654 36.9977 8.81923C36.5324 9.67444 36.2442 10.3238 36.0406 10.8269H47.8544V19.0961C47.3184 18.8975 46.6229 18.6032 45.7149 18.1171C43.6646 17.0195 41.0339 18.8293 40.9559 20.9298H26.8038C26.7258 18.8293 24.0951 17.0195 22.0448 18.1171C21.167 18.587 20.4894 18.8755 19.961 19.0737C19.961 19.075 19.961 19.0756 19.961 19.0762C19.7494 19.579 19.4364 20.2326 18.9191 21.0839C17.7496 23.0081 19.6768 25.4758 21.9149 25.5489V38.8299C19.6768 38.903 17.7496 41.3732 18.9191 43.2974C19.4242 44.1285 19.7311 44.7675 19.9424 45.2653C20.4735 45.4637 21.1569 45.754 22.0448 46.2294C24.0951 47.327 26.7258 45.5172 26.8038 43.4167H40.9559C41.0339 45.5172 43.6646 47.327 45.7149 46.2294C46.6229 45.7433 47.3184 45.449 47.8544 45.2504V53.5221H36.0406C36.2442 54.0252 36.5324 54.6745 36.9977 55.5297C38.0873 57.5324 36.1818 60.0023 33.9011 60.0023C31.6203 60.0023 29.6147 57.483 30.8018 55.5297C31.3198 54.6773 31.6347 54.0252 31.8464 53.5221H19.9053V45.3051H11.1484V34.2157C10.6123 34.4068 9.92004 34.6785 9.00883 35.1152C6.87494 36.1378 4.24194 34.3486 4.24194 32.208C4.24194 30.0675 6.92761 28.1868 9.00883 29.3009C9.91707 29.7871 10.6123 30.0813 11.1484 30.2799V19.0737H19.9053V10.8269H31.8464C31.6347 10.3238 31.3198 9.67165 30.8018 8.81924C29.6147 6.86596 31.6203 4.34424 33.9011 4.34424V4.34423ZM47.9127 19.0737H56.7227V30.2799C57.2587 30.0813 57.954 29.7871 58.8622 29.3009C60.9434 28.1868 63.6291 30.0675 63.6291 32.208C63.6291 34.3486 60.9961 36.1378 58.8622 35.1152C57.951 34.6785 57.2587 34.4068 56.7227 34.2157V45.3051H47.9127C48.1243 44.802 48.4367 44.1496 48.9546 43.2974C50.1241 41.3732 48.1969 38.903 45.9588 38.8298V25.5489C48.1969 25.4758 50.1241 23.0081 48.9546 21.0839C48.4366 20.2315 48.1243 19.5768 47.9127 19.0737Z" fill="white"/>
</svg>
