<svg width="28" height="28" viewBox="0 0 28 28" fill="none" xmlns="http://www.w3.org/2000/svg">
<path d="M0 0V28H28V0H0ZM13.9858 1.75C14.9267 1.75 15.7128 2.83828 15.2633 3.71984C15.0713 4.0963 14.9524 4.38214 14.8684 4.6036H19.7422V8.24359C19.5211 8.15617 19.2341 8.02662 18.8595 7.81266C18.0137 7.32952 16.9284 8.12616 16.8962 9.05078H11.0578C11.0256 8.12616 9.94036 7.32952 9.09452 7.81266C8.73238 8.01951 8.45284 8.14648 8.23483 8.23375C8.23483 8.23431 8.23483 8.23458 8.23483 8.23485C8.14754 8.45618 8.01844 8.74387 7.80499 9.1186C7.32254 9.96562 8.1176 11.0519 9.04093 11.0841V16.9302C8.1176 16.9624 7.32254 18.0497 7.80499 18.8967C8.01338 19.2626 8.14 19.5438 8.22718 19.763C8.44626 19.8503 8.7282 19.9781 9.09452 20.1874C9.94036 20.6705 11.0256 19.8739 11.0578 18.9492H16.8962C16.9284 19.8739 18.0137 20.6705 18.8595 20.1874C19.2341 19.9734 19.5211 19.8438 19.7422 19.7564V23.3975H14.8684C14.9524 23.619 15.0713 23.9048 15.2633 24.2813C15.7128 25.1628 14.9267 26.25 13.9858 26.25C13.0448 26.25 12.2174 25.1411 12.7072 24.2813C12.9209 23.906 13.0508 23.619 13.1381 23.3975H8.21187V19.7805H4.59922V14.8991C4.37807 14.9832 4.09248 15.1028 3.71656 15.295C2.83623 15.7452 1.75 14.9576 1.75 14.0153C1.75 13.0731 2.85796 12.2452 3.71656 12.7356C4.09126 12.9497 4.37807 13.0791 4.59922 13.1666V8.23375H8.21187V4.60359H13.1381C13.0508 4.38214 12.9209 4.09507 12.7072 3.71985C12.2174 2.86004 13.0448 1.75 13.9858 1.75V1.75ZM19.7662 8.23375H23.4008V13.1666C23.6219 13.0791 23.9087 12.9496 24.2834 12.7356C25.142 12.2452 26.25 13.0731 26.25 14.0153C26.25 14.9576 25.1637 15.7451 24.2834 15.295C23.9075 15.1028 23.6219 14.9832 23.4008 14.8991V19.7805H19.7662C19.8535 19.559 19.9824 19.2718 20.1961 18.8967C20.6785 18.0497 19.8835 16.9624 18.9601 16.9302V11.0841C19.8835 11.0519 20.6785 9.96562 20.1961 9.1186C19.9824 8.74338 19.8535 8.4552 19.7662 8.23375Z" fill="white"/>
</svg>
