<svg width="21" height="22" viewBox="0 0 21 22" fill="none" xmlns="http://www.w3.org/2000/svg">
<path d="M12.0703 19.8642L11.0297 20.9048C10.5891 21.3454 9.87659 21.3454 9.44065 20.9048L0.328149 11.797C-0.112476 11.3564 -0.112476 10.6439 0.328149 10.2079L9.44065 1.09542C9.88128 0.654797 10.5938 0.654797 11.0297 1.09542L12.0703 2.13605C12.5156 2.58136 12.5063 3.30792 12.0516 3.74386L6.40315 9.12511H19.875C20.4985 9.12511 21 9.62667 21 10.2501V11.7501C21 12.3735 20.4985 12.8751 19.875 12.8751H6.40315L12.0516 18.2564C12.511 18.6923 12.5203 19.4189 12.0703 19.8642Z" fill="white"/>
</svg>
