<svg width="64" height="64" viewBox="0 0 64 64" fill="none" xmlns="http://www.w3.org/2000/svg">
<g filter="url(#filter0_d)">
<circle cx="32" cy="28" r="28" fill="#CE098F"/>
<circle cx="32" cy="28" r="27" stroke="white" stroke-width="2"/>
</g>
<g clip-path="url(#clip0)">
<path d="M32.5891 21.711C29.111 21.711 26.3056 24.5165 26.3056 27.9946C26.3056 31.4727 29.111 34.2782 32.5891 34.2782C36.0673 34.2782 38.8727 31.4727 38.8727 27.9946C38.8727 24.5165 36.0673 21.711 32.5891 21.711ZM32.5891 32.0797C30.3415 32.0797 28.504 30.2477 28.504 27.9946C28.504 25.7415 30.336 23.9094 32.5891 23.9094C34.8423 23.9094 36.6743 25.7415 36.6743 27.9946C36.6743 30.2477 34.8368 32.0797 32.5891 32.0797ZM40.5954 21.454C40.5954 22.2688 39.9391 22.9196 39.1298 22.9196C38.3149 22.9196 37.6641 22.2633 37.6641 21.454C37.6641 20.6446 38.3204 19.9883 39.1298 19.9883C39.9391 19.9883 40.5954 20.6446 40.5954 21.454ZM44.7571 22.9415C44.6641 20.9782 44.2157 19.2391 42.7774 17.8063C41.3446 16.3735 39.6055 15.925 37.6423 15.8266C35.6188 15.7118 29.554 15.7118 27.5306 15.8266C25.5727 15.9196 23.8337 16.368 22.3954 17.8008C20.9571 19.2336 20.5142 20.9727 20.4157 22.936C20.3009 24.9594 20.3009 31.0243 20.4157 33.0477C20.5087 35.011 20.9571 36.75 22.3954 38.1829C23.8337 39.6157 25.5673 40.0641 27.5306 40.1625C29.554 40.2774 35.6188 40.2774 37.6423 40.1625C39.6055 40.0696 41.3446 39.6211 42.7774 38.1829C44.2102 36.75 44.6587 35.011 44.7571 33.0477C44.8719 31.0243 44.8719 24.9649 44.7571 22.9415ZM42.143 35.2188C41.7165 36.2907 40.8907 37.1165 39.8134 37.5485C38.2001 38.1883 34.372 38.0407 32.5891 38.0407C30.8063 38.0407 26.9727 38.1829 25.3649 37.5485C24.2931 37.1219 23.4673 36.2961 23.0353 35.2188C22.3954 33.6055 22.5431 29.7774 22.5431 27.9946C22.5431 26.2118 22.4009 22.3782 23.0353 20.7704C23.4618 19.6985 24.2876 18.8727 25.3649 18.4407C26.9782 17.8008 30.8063 17.9485 32.5891 17.9485C34.372 17.9485 38.2055 17.8063 39.8134 18.4407C40.8852 18.8672 41.711 19.693 42.143 20.7704C42.7829 22.3836 42.6352 26.2118 42.6352 27.9946C42.6352 29.7774 42.7829 33.611 42.143 35.2188Z" fill="white"/>
</g>
<defs>
<filter id="filter0_d" x="0" y="0" width="64" height="64" filterUnits="userSpaceOnUse" color-interpolation-filters="sRGB">
<feFlood flood-opacity="0" result="BackgroundImageFix"/>
<feColorMatrix in="SourceAlpha" type="matrix" values="0 0 0 0 0 0 0 0 0 0 0 0 0 0 0 0 0 0 127 0"/>
<feOffset dy="4"/>
<feGaussianBlur stdDeviation="2"/>
<feColorMatrix type="matrix" values="0 0 0 0 0 0 0 0 0 0 0 0 0 0 0 0 0 0 0.25 0"/>
<feBlend mode="normal" in2="BackgroundImageFix" result="effect1_dropShadow"/>
<feBlend mode="normal" in="SourceGraphic" in2="effect1_dropShadow" result="shape"/>
</filter>
<clipPath id="clip0">
<rect width="24.5" height="28" fill="white" transform="translate(20.3335 14)"/>
</clipPath>
</defs>
</svg>
