<svg width="64" height="64" viewBox="0 0 64 64" fill="none" xmlns="http://www.w3.org/2000/svg">
<g filter="url(#filter0_d)">
<circle cx="32" cy="28" r="28" fill="#189D0E"/>
<circle cx="32" cy="28" r="27" stroke="white" stroke-width="2"/>
</g>
<g clip-path="url(#clip0)">
<path d="M41.164 19.3102C38.8726 17.0133 35.821 15.75 32.578 15.75C25.8843 15.75 20.4374 21.1969 20.4374 27.8906C20.4374 30.0289 20.9952 32.118 22.0562 33.9609L20.3335 40.25L26.7702 38.5602C28.5421 39.5281 30.5382 40.0367 32.5726 40.0367H32.578C39.2663 40.0367 44.8335 34.5898 44.8335 27.8961C44.8335 24.6531 43.4554 21.607 41.164 19.3102ZM32.578 37.9914C30.7624 37.9914 28.9851 37.5047 27.4374 36.5859L27.071 36.3672L23.2538 37.368L24.271 33.6438L24.0304 33.2609C23.0187 31.6531 22.4882 29.7992 22.4882 27.8906C22.4882 22.3289 27.0163 17.8008 32.5835 17.8008C35.2796 17.8008 37.8116 18.8508 39.7147 20.7594C41.6179 22.668 42.7882 25.2 42.7827 27.8961C42.7827 33.4633 38.1397 37.9914 32.578 37.9914ZM38.1124 30.4336C37.8116 30.2805 36.3187 29.5477 36.0397 29.4492C35.7608 29.3453 35.5585 29.2961 35.3562 29.6023C35.1538 29.9086 34.5741 30.5867 34.3937 30.7945C34.2187 30.9969 34.0382 31.0242 33.7374 30.8711C31.9546 29.9797 30.7843 29.2797 29.6085 27.2617C29.2968 26.7258 29.9202 26.7641 30.4999 25.6047C30.5983 25.4023 30.5491 25.2273 30.4726 25.0742C30.396 24.9211 29.789 23.4281 29.5374 22.8211C29.2913 22.2305 29.0397 22.3125 28.8538 22.3016C28.6788 22.2906 28.4765 22.2906 28.2741 22.2906C28.0718 22.2906 27.7437 22.3672 27.4647 22.668C27.1858 22.9742 26.4038 23.707 26.4038 25.2C26.4038 26.693 27.4921 28.1367 27.6397 28.3391C27.7929 28.5414 29.778 31.6039 32.8241 32.9219C34.7491 33.7531 35.5038 33.8242 36.4663 33.682C37.0515 33.5945 38.2601 32.9492 38.5116 32.2383C38.7632 31.5273 38.7632 30.9203 38.6866 30.7945C38.6155 30.6578 38.4132 30.5813 38.1124 30.4336Z" fill="white"/>
</g>
<defs>
<filter id="filter0_d" x="0" y="0" width="64" height="64" filterUnits="userSpaceOnUse" color-interpolation-filters="sRGB">
<feFlood flood-opacity="0" result="BackgroundImageFix"/>
<feColorMatrix in="SourceAlpha" type="matrix" values="0 0 0 0 0 0 0 0 0 0 0 0 0 0 0 0 0 0 127 0"/>
<feOffset dy="4"/>
<feGaussianBlur stdDeviation="2"/>
<feColorMatrix type="matrix" values="0 0 0 0 0 0 0 0 0 0 0 0 0 0 0 0 0 0 0.25 0"/>
<feBlend mode="normal" in2="BackgroundImageFix" result="effect1_dropShadow"/>
<feBlend mode="normal" in="SourceGraphic" in2="effect1_dropShadow" result="shape"/>
</filter>
<clipPath id="clip0">
<rect width="24.5" height="28" fill="white" transform="translate(20.3335 14)"/>
</clipPath>
</defs>
</svg>
