<svg width="64" height="64" viewBox="0 0 64 64" fill="none" xmlns="http://www.w3.org/2000/svg">
<g filter="url(#filter0_d)">
<circle cx="32" cy="28" r="28" fill="#884599"/>
<circle cx="32" cy="28" r="27" stroke="white" stroke-width="2"/>
</g>
<path d="M44.7195 21.1984C44.4142 20.0488 43.5146 19.1433 42.3724 18.8361C40.302 18.2777 32.0002 18.2777 32.0002 18.2777C32.0002 18.2777 23.6984 18.2777 21.628 18.8361C20.4857 19.1434 19.5862 20.0488 19.2808 21.1984C18.7261 23.2822 18.7261 27.6299 18.7261 27.6299C18.7261 27.6299 18.7261 31.9776 19.2808 34.0614C19.5862 35.2111 20.4857 36.0788 21.628 36.386C23.6984 36.9444 32.0002 36.9444 32.0002 36.9444C32.0002 36.9444 40.302 36.9444 42.3724 36.386C43.5146 36.0788 44.4142 35.2111 44.7195 34.0614C45.2743 31.9776 45.2743 27.6299 45.2743 27.6299C45.2743 27.6299 45.2743 23.2822 44.7195 21.1984ZM29.285 31.5773V23.6825L36.2237 27.63L29.285 31.5773Z" fill="white"/>
<defs>
<filter id="filter0_d" x="0" y="0" width="64" height="64" filterUnits="userSpaceOnUse" color-interpolation-filters="sRGB">
<feFlood flood-opacity="0" result="BackgroundImageFix"/>
<feColorMatrix in="SourceAlpha" type="matrix" values="0 0 0 0 0 0 0 0 0 0 0 0 0 0 0 0 0 0 127 0"/>
<feOffset dy="4"/>
<feGaussianBlur stdDeviation="2"/>
<feColorMatrix type="matrix" values="0 0 0 0 0 0 0 0 0 0 0 0 0 0 0 0 0 0 0.25 0"/>
<feBlend mode="normal" in2="BackgroundImageFix" result="effect1_dropShadow"/>
<feBlend mode="normal" in="SourceGraphic" in2="effect1_dropShadow" result="shape"/>
</filter>
</defs>
</svg>
