<svg width="64" height="64" viewBox="0 0 64 64" fill="none" xmlns="http://www.w3.org/2000/svg">
<g filter="url(#filter0_d)">
<circle cx="32" cy="28" r="28" fill="#884599"/>
<circle cx="32" cy="28" r="27" stroke="white" stroke-width="2"/>
</g>
<g clip-path="url(#clip0)">
<path d="M30.4735 33.2312C30.8177 33.2312 31.0968 33.5103 31.0968 33.8546V40.1297C31.0968 40.5284 30.6179 40.7315 30.3313 40.4543C28.5186 38.7017 27.1842 36.8247 26.2662 34.0509C26.1326 33.6472 26.4329 33.2312 26.8581 33.2312H30.4735ZM37.1419 33.2312H33.5266C33.1824 33.2312 32.9033 33.5103 32.9033 33.8546V40.1297C32.9033 40.5284 33.3822 40.7315 33.6688 40.4543C35.4815 38.7017 36.8159 36.8247 37.7339 34.0509C37.8675 33.6472 37.5671 33.2312 37.1419 33.2312ZM24.2692 33.6879C24.1948 33.4179 23.949 33.2312 23.6688 33.2312H18.9286C18.4421 33.2312 18.0236 33.6053 18.001 34.0913C17.9769 34.61 18.3899 35.0377 18.9033 35.0377H19.2877C21.1442 39.0602 24.7959 41.9454 29.0553 42.8561C29.5113 42.9536 29.7951 42.3767 29.4421 42.0721C26.9092 39.8865 25.1813 36.9962 24.2692 33.6879ZM45.0715 33.2312H40.3312C40.0511 33.2312 39.8053 33.4178 39.7308 33.6879C38.8188 36.9961 37.0909 39.8864 34.558 42.0721C34.2049 42.3767 34.4888 42.9537 34.9447 42.8562C39.2028 41.9457 42.8553 39.0614 44.7124 35.0377H45.0968C45.6102 35.0377 46.0232 34.61 45.999 34.0912C45.9764 33.6053 45.558 33.2312 45.0715 33.2312ZM26.3219 31.4407L27.4509 27.3762C27.5845 26.8956 27.3031 26.3977 26.8224 26.2642C26.3418 26.1308 25.8439 26.4121 25.7104 26.8927L25.0279 29.3497C24.5625 28.8206 24.3726 28.4987 23.871 28.4987C23.3694 28.4987 23.1808 28.819 22.7141 29.3497L22.0316 26.8927C21.8981 26.4121 21.4002 26.1306 20.9196 26.2642C20.4389 26.3977 20.1576 26.8956 20.2911 27.3762L21.4201 31.4407C21.6115 32.1298 22.4948 32.3343 22.9686 31.7955L23.871 30.7696L24.7734 31.7956C25.2454 32.3322 26.1299 32.1322 26.3219 31.4407ZM42.58 31.4407L43.709 27.3762C43.8425 26.8956 43.5612 26.3977 43.0805 26.2642C42.6 26.1308 42.102 26.4121 41.9685 26.8927L41.286 29.3497C40.8206 28.8206 40.6307 28.4987 40.1291 28.4987C39.6275 28.4987 39.4389 28.819 38.9722 29.3497L38.2897 26.8927C38.1562 26.4121 37.6581 26.1306 37.1777 26.2642C36.697 26.3977 36.4156 26.8956 36.5491 27.3762L37.6782 31.4407C37.8695 32.1297 38.7527 32.3343 39.2266 31.7955L40.1291 30.7696L41.0315 31.7956C41.5035 32.3322 42.388 32.1322 42.58 31.4407ZM34.4509 31.4407L35.58 27.3762C35.7135 26.8956 35.4321 26.3977 34.9515 26.2642C34.471 26.1308 33.973 26.4121 33.8395 26.8927L33.157 29.3497C32.6916 28.8206 32.5016 28.4987 32 28.4987C31.4985 28.4987 31.3099 28.819 30.8431 29.3497L30.1606 26.8927C30.0272 26.4121 29.5292 26.1306 29.0486 26.2642C28.568 26.3977 28.2866 26.8956 28.4201 27.3762L29.5491 31.4407C29.7405 32.1298 30.6239 32.3343 31.0976 31.7955L32 30.7696L32.9025 31.7956C33.3745 32.3322 34.259 32.1322 34.4509 31.4407ZM30.4735 25.1022C30.8177 25.1022 31.0968 24.8231 31.0968 24.4789V18.2038C31.0968 17.805 30.6179 17.602 30.3313 17.8791C28.5186 19.6318 27.1842 21.5088 26.2662 24.2825C26.1326 24.6862 26.4329 25.1022 26.8581 25.1022H30.4735ZM37.7339 24.2825C37.0742 22.2891 35.9338 20.0712 33.9664 18.1668L33.6688 17.8791C33.3822 17.602 32.9033 17.805 32.9033 18.2038V24.4789C32.9033 24.8231 33.1824 25.1022 33.5266 25.1022H37.1419C37.5671 25.1022 37.8675 24.6862 37.7339 24.2825ZM29.4421 16.2613C29.7951 15.9567 29.5113 15.3798 29.0553 15.4773C24.7974 16.3877 21.1449 19.2719 19.2877 23.2958H18.9033C18.3899 23.2958 17.9769 23.7235 18.0011 24.2422C18.0236 24.7282 18.4421 25.1022 18.9286 25.1022H23.6689C23.949 25.1022 24.1948 24.9156 24.2693 24.6455C25.1813 21.3375 26.9091 18.4471 29.4421 16.2613ZM45.999 24.2422C46.0232 23.7235 45.6102 23.2958 45.0968 23.2958H44.7124C42.8557 19.2731 39.204 16.388 34.9448 15.4773C34.4888 15.3798 34.205 15.9567 34.558 16.2613C37.0908 18.447 38.8188 21.3371 39.7309 24.6455C39.8053 24.9156 40.0511 25.1022 40.3313 25.1022H45.0715C45.558 25.1022 45.9764 24.7282 45.999 24.2422Z" fill="white"/>
</g>
<defs>
<filter id="filter0_d" x="0" y="0" width="64" height="64" filterUnits="userSpaceOnUse" color-interpolation-filters="sRGB">
<feFlood flood-opacity="0" result="BackgroundImageFix"/>
<feColorMatrix in="SourceAlpha" type="matrix" values="0 0 0 0 0 0 0 0 0 0 0 0 0 0 0 0 0 0 127 0"/>
<feOffset dy="4"/>
<feGaussianBlur stdDeviation="2"/>
<feColorMatrix type="matrix" values="0 0 0 0 0 0 0 0 0 0 0 0 0 0 0 0 0 0 0.25 0"/>
<feBlend mode="normal" in2="BackgroundImageFix" result="effect1_dropShadow"/>
<feBlend mode="normal" in="SourceGraphic" in2="effect1_dropShadow" result="shape"/>
</filter>
<clipPath id="clip0">
<rect width="28" height="28" fill="white" transform="translate(18 15.1666)"/>
</clipPath>
</defs>
</svg>
