<svg width="64" height="64" viewBox="0 0 64 64" fill="none" xmlns="http://www.w3.org/2000/svg">
<g filter="url(#filter0_d)">
<circle cx="32" cy="28" r="28" fill="#1C9CEA"/>
<circle cx="32" cy="28" r="27" stroke="white" stroke-width="2"/>
</g>
<g clip-path="url(#clip0)">
<path d="M44 21.5585C43.1075 21.95 42.1565 22.2095 41.165 22.3355C42.185 21.7265 42.9635 20.7695 43.3295 19.616C42.3785 20.183 41.3285 20.5835 40.2095 20.807C39.3065 19.8455 38.0195 19.25 36.6155 19.25C33.8915 19.25 31.6985 21.461 31.6985 24.1715C31.6985 24.5615 31.7315 24.9365 31.8125 25.2935C27.722 25.094 24.1025 23.1335 21.671 20.147C21.2465 20.8835 20.9975 21.7265 20.9975 22.634C20.9975 24.338 21.875 25.8485 23.183 26.723C22.3925 26.708 21.617 26.4785 20.96 26.117C20.96 26.132 20.96 26.1515 20.96 26.171C20.96 28.562 22.6655 30.548 24.902 31.0055C24.5015 31.115 24.065 31.1675 23.612 31.1675C23.297 31.1675 22.979 31.1495 22.6805 31.0835C23.318 33.032 25.127 34.4645 27.278 34.511C25.604 35.8205 23.4785 36.6095 21.1775 36.6095C20.774 36.6095 20.387 36.5915 20 36.542C22.1795 37.9475 24.7625 38.75 27.548 38.75C36.602 38.75 41.552 31.25 41.552 24.749C41.552 24.5315 41.5445 24.3215 41.534 24.113C42.5105 23.42 43.331 22.5545 44 21.5585Z" fill="white"/>
</g>
<defs>
<filter id="filter0_d" x="0" y="0" width="64" height="64" filterUnits="userSpaceOnUse" color-interpolation-filters="sRGB">
<feFlood flood-opacity="0" result="BackgroundImageFix"/>
<feColorMatrix in="SourceAlpha" type="matrix" values="0 0 0 0 0 0 0 0 0 0 0 0 0 0 0 0 0 0 127 0"/>
<feOffset dy="4"/>
<feGaussianBlur stdDeviation="2"/>
<feColorMatrix type="matrix" values="0 0 0 0 0 0 0 0 0 0 0 0 0 0 0 0 0 0 0.25 0"/>
<feBlend mode="normal" in2="BackgroundImageFix" result="effect1_dropShadow"/>
<feBlend mode="normal" in="SourceGraphic" in2="effect1_dropShadow" result="shape"/>
</filter>
<clipPath id="clip0">
<rect width="24" height="24" fill="white" transform="translate(20 17)"/>
</clipPath>
</defs>
</svg>
