<svg width="60" height="64" viewBox="0 0 60 64" fill="none" xmlns="http://www.w3.org/2000/svg">
<g filter="url(#filter0_d)">
<circle cx="32" cy="28" r="28" fill="#884599"/>
<circle cx="32" cy="28" r="26" stroke="white" stroke-width="4"/>
</g>
<path d="M37.5 31C36.4403 31 35.4662 31.3665 34.6973 31.9795L29.8933 28.9769C30.0356 28.3334 30.0356 27.6666 29.8933 27.023L34.6973 24.0205C35.4662 24.6335 36.4403 25 37.5 25C39.9853 25 42 22.9853 42 20.5C42 18.0147 39.9853 16 37.5 16C35.0147 16 33 18.0147 33 20.5C33 20.8355 33.037 21.1623 33.1067 21.4769L28.3027 24.4795C27.5338 23.8665 26.5598 23.5 25.5 23.5C23.0147 23.5 21 25.5147 21 28C21 30.4853 23.0147 32.5 25.5 32.5C26.5598 32.5 27.5338 32.1335 28.3027 31.5205L33.1067 34.5231C33.0357 34.8439 32.9999 35.1714 33 35.5C33 37.9853 35.0147 40 37.5 40C39.9853 40 42 37.9853 42 35.5C42 33.0147 39.9853 31 37.5 31Z" fill="white"/>
<defs>
<filter id="filter0_d" x="0" y="0" width="64" height="64" filterUnits="userSpaceOnUse" color-interpolation-filters="sRGB">
<feFlood flood-opacity="0" result="BackgroundImageFix"/>
<feColorMatrix in="SourceAlpha" type="matrix" values="0 0 0 0 0 0 0 0 0 0 0 0 0 0 0 0 0 0 127 0"/>
<feOffset dy="4"/>
<feGaussianBlur stdDeviation="2"/>
<feColorMatrix type="matrix" values="0 0 0 0 0 0 0 0 0 0 0 0 0 0 0 0 0 0 0.25 0"/>
<feBlend mode="normal" in2="BackgroundImageFix" result="effect1_dropShadow"/>
<feBlend mode="normal" in="SourceGraphic" in2="effect1_dropShadow" result="shape"/>
</filter>
</defs>
</svg>
