<svg width="27" height="28" viewBox="0 0 27 28" fill="none" xmlns="http://www.w3.org/2000/svg">
<g clip-path="url(#clip0)">
<path d="M20.5263 17.5C19.2249 17.5 18.0287 17.9276 17.0845 18.6427L11.1848 15.1397C11.3595 14.389 11.3595 13.611 11.1848 12.8602L17.0845 9.35725C18.0287 10.0724 19.2249 10.5 20.5263 10.5C23.5784 10.5 26.0527 8.14948 26.0527 5.25C26.0527 2.35052 23.5784 0 20.5263 0C17.4743 0 15 2.35052 15 5.25C15 5.64145 15.0455 6.02273 15.131 6.38974L9.23136 9.8927C8.28711 9.1776 7.09095 8.75 5.7895 8.75C2.73742 8.75 0.263184 11.1005 0.263184 14C0.263184 16.8995 2.73742 19.25 5.7895 19.25C7.09095 19.25 8.28711 18.8224 9.23136 18.1073L15.131 21.6103C15.0438 21.9845 14.9999 22.3667 15 22.75C15 25.6495 17.4743 28 20.5263 28C23.5784 28 26.0527 25.6495 26.0527 22.75C26.0527 19.8505 23.5784 17.5 20.5263 17.5Z" fill="white"/>
</g>
<defs>
<clipPath id="clip0">
<rect width="25.7895" height="28" fill="white" transform="translate(0.263184)"/>
</clipPath>
</defs>
</svg>
