<svg width="23" height="24" viewBox="0 0 23 24" fill="none" xmlns="http://www.w3.org/2000/svg">
<g clip-path="url(#clip0_8_2155)">
<path d="M17.3684 15C16.2529 15 15.2276 15.3665 14.4183 15.9795L9.36138 12.9769C9.51114 12.3334 9.51114 11.6666 9.36138 11.023L14.4183 8.0205C15.2276 8.63348 16.2529 9 17.3684 9C19.9845 9 22.1053 6.98527 22.1053 4.5C22.1053 2.01473 19.9845 0 17.3684 0C14.7524 0 12.6316 2.01473 12.6316 4.5C12.6316 4.83553 12.6706 5.16234 12.7439 5.47692L7.68701 8.47945C6.87765 7.86652 5.85237 7.5 4.73684 7.5C2.12077 7.5 0 9.51473 0 12C0 14.4853 2.12077 16.5 4.73684 16.5C5.85237 16.5 6.87765 16.1335 7.68701 15.5205L12.7439 18.5231C12.6691 18.8439 12.6315 19.1714 12.6316 19.5C12.6316 21.9853 14.7524 24 17.3684 24C19.9845 24 22.1053 21.9853 22.1053 19.5C22.1053 17.0147 19.9845 15 17.3684 15Z" fill="white"/>
</g>
<defs>
<clipPath id="clip0_8_2155">
<rect width="22.1053" height="24" fill="white"/>
</clipPath>
</defs>
</svg>
