<svg width="32" height="24" viewBox="0 0 32 24" fill="none" xmlns="http://www.w3.org/2000/svg">
<g clip-path="url(#clip0_8_2150)">
<path d="M4.73684 10.5C6.47862 10.5 7.89474 9.15469 7.89474 7.5C7.89474 5.84531 6.47862 4.5 4.73684 4.5C2.99507 4.5 1.57895 5.84531 1.57895 7.5C1.57895 9.15469 2.99507 10.5 4.73684 10.5ZM26.8421 10.5C28.5839 10.5 30 9.15469 30 7.5C30 5.84531 28.5839 4.5 26.8421 4.5C25.1003 4.5 23.6842 5.84531 23.6842 7.5C23.6842 9.15469 25.1003 10.5 26.8421 10.5ZM28.4211 12H25.2632C24.3947 12 23.6102 12.3328 23.0378 12.8719C25.0263 13.9078 26.4375 15.7781 26.7434 18H30C30.8734 18 31.5789 17.3297 31.5789 16.5V15C31.5789 13.3453 30.1628 12 28.4211 12ZM15.7895 12C18.8438 12 21.3158 9.65156 21.3158 6.75C21.3158 3.84844 18.8438 1.5 15.7895 1.5C12.7352 1.5 10.2632 3.84844 10.2632 6.75C10.2632 9.65156 12.7352 12 15.7895 12ZM19.5789 13.5H19.1694C18.1431 13.9688 17.0033 14.25 15.7895 14.25C14.5757 14.25 13.4408 13.9688 12.4095 13.5H12C8.86184 13.5 6.31579 15.9188 6.31579 18.9V20.25C6.31579 21.4922 7.37664 22.5 8.68421 22.5H22.8947C24.2023 22.5 25.2632 21.4922 25.2632 20.25V18.9C25.2632 15.9188 22.7171 13.5 19.5789 13.5ZM8.54112 12.8719C7.96875 12.3328 7.18421 12 6.31579 12H3.15789C1.41612 12 0 13.3453 0 15V16.5C0 17.3297 0.705592 18 1.57895 18H4.83059C5.14145 15.7781 6.55263 13.9078 8.54112 12.8719Z" fill="white"/>
</g>
<defs>
<clipPath id="clip0_8_2150">
<rect width="31.5789" height="24" fill="white"/>
</clipPath>
</defs>
</svg>
