<svg width="37" height="28" viewBox="0 0 37 28" fill="none" xmlns="http://www.w3.org/2000/svg">
<g clip-path="url(#clip0)">
<path d="M5.57905 12.25C7.61112 12.25 9.26326 10.6805 9.26326 8.75C9.26326 6.81953 7.61112 5.25 5.57905 5.25C3.54698 5.25 1.89484 6.81953 1.89484 8.75C1.89484 10.6805 3.54698 12.25 5.57905 12.25ZM31.3685 12.25C33.4006 12.25 35.0527 10.6805 35.0527 8.75C35.0527 6.81953 33.4006 5.25 31.3685 5.25C29.3365 5.25 27.6843 6.81953 27.6843 8.75C27.6843 10.6805 29.3365 12.25 31.3685 12.25ZM33.2106 14H29.5264C28.5133 14 27.598 14.3883 26.9302 15.0172C29.2501 16.2258 30.8965 18.4078 31.2534 21H35.0527C36.0716 21 36.8948 20.218 36.8948 19.25V17.5C36.8948 15.5695 35.2427 14 33.2106 14ZM18.4738 14C22.0371 14 24.9212 11.2602 24.9212 7.875C24.9212 4.48984 22.0371 1.75 18.4738 1.75C14.9105 1.75 12.0264 4.48984 12.0264 7.875C12.0264 11.2602 14.9105 14 18.4738 14ZM22.8948 15.75H22.417C21.2197 16.2969 19.8899 16.625 18.4738 16.625C17.0577 16.625 15.7337 16.2969 14.5305 15.75H14.0527C10.3916 15.75 7.42116 18.5719 7.42116 22.05V23.625C7.42116 25.0742 8.65882 26.25 10.1843 26.25H26.7633C28.2888 26.25 29.5264 25.0742 29.5264 23.625V22.05C29.5264 18.5719 26.556 15.75 22.8948 15.75ZM10.0174 15.0172C9.34961 14.3883 8.43431 14 7.42116 14H3.73694C1.70487 14 0.0527344 15.5695 0.0527344 17.5V19.25C0.0527344 20.218 0.875925 21 1.89484 21H5.68843C6.05109 18.4078 7.69747 16.2258 10.0174 15.0172Z" fill="white"/>
</g>
<defs>
<clipPath id="clip0">
<rect width="36.8421" height="28" fill="white" transform="translate(0.0527344)"/>
</clipPath>
</defs>
</svg>
