<svg width="34" height="28" viewBox="0 0 34 28" fill="none" xmlns="http://www.w3.org/2000/svg">
<g clip-path="url(#clip0)">
<path d="M16.1923 8.10798L5.57894 16.4123V25.375C5.57894 25.6071 5.67598 25.8296 5.84871 25.9937C6.02144 26.1578 6.25571 26.25 6.49999 26.25L12.9508 26.2342C13.1943 26.233 13.4274 26.1403 13.5991 25.9763C13.7709 25.8124 13.8673 25.5905 13.8673 25.3592V20.125C13.8673 19.893 13.9643 19.6704 14.137 19.5063C14.3098 19.3422 14.544 19.25 14.7883 19.25H18.4725C18.7168 19.25 18.9511 19.3422 19.1238 19.5063C19.2965 19.6704 19.3936 19.893 19.3936 20.125V25.3553C19.3932 25.4705 19.4167 25.5845 19.4629 25.691C19.509 25.7975 19.5768 25.8943 19.6623 25.9758C19.7479 26.0574 19.8496 26.1221 19.9615 26.1662C20.0734 26.2103 20.1934 26.2331 20.3146 26.2331L26.7631 26.25C27.0074 26.25 27.2417 26.1578 27.4144 25.9937C27.5872 25.8296 27.6842 25.6071 27.6842 25.375V16.4063L17.0731 8.10798C16.9484 8.01246 16.7929 7.96036 16.6327 7.96036C16.4725 7.96036 16.3171 8.01246 16.1923 8.10798ZM32.9572 13.7523L28.1447 9.98376V2.409C28.1447 2.23495 28.0719 2.06803 27.9424 1.94496C27.8129 1.82189 27.6371 1.75275 27.4539 1.75275H24.2303C24.047 1.75275 23.8713 1.82189 23.7418 1.94496C23.6122 2.06803 23.5395 2.23495 23.5395 2.409V6.37986L18.3856 2.35157C17.891 1.96492 17.2704 1.75352 16.6298 1.75352C15.9893 1.75352 15.3687 1.96492 14.8741 2.35157L0.302456 13.7523C0.232506 13.8072 0.174634 13.8747 0.132146 13.9509C0.0896579 14.027 0.0633865 14.1104 0.0548331 14.1963C0.0462796 14.2821 0.0556116 14.3687 0.082296 14.4511C0.10898 14.5335 0.152494 14.6101 0.210351 14.6765L1.67828 16.3718C1.73598 16.4385 1.80695 16.4936 1.88713 16.5342C1.9673 16.5748 2.05512 16.5999 2.14553 16.6082C2.23595 16.6165 2.3272 16.6077 2.41406 16.5825C2.50092 16.5572 2.58168 16.5159 2.65172 16.461L16.1923 5.86579C16.3171 5.77027 16.4725 5.71818 16.6327 5.71818C16.7929 5.71818 16.9484 5.77027 17.0731 5.86579L30.6143 16.461C30.6842 16.5159 30.7648 16.5573 30.8516 16.5826C30.9383 16.608 31.0295 16.6168 31.1198 16.6087C31.2102 16.6006 31.2979 16.5756 31.3781 16.5352C31.4583 16.4949 31.5293 16.4399 31.5872 16.3735L33.0551 14.6781C33.1129 14.6113 33.1562 14.5343 33.1826 14.4516C33.209 14.3688 33.2178 14.2819 33.2088 14.1959C33.1997 14.1098 33.1728 14.0264 33.1296 13.9502C33.0864 13.8741 33.0278 13.8068 32.9572 13.7523Z" fill="white"/>
</g>
<defs>
<clipPath id="clip0">
<rect width="33.1579" height="28" fill="white" transform="translate(0.0527344)"/>
</clipPath>
</defs>
</svg>
