<svg width="29" height="24" viewBox="0 0 29 24" fill="none" xmlns="http://www.w3.org/2000/svg">
<g clip-path="url(#clip0_8_2165)">
<path d="M13.8339 6.94966L4.73671 14.0676V21.75C4.73671 21.9489 4.81988 22.1397 4.96794 22.2803C5.11599 22.421 5.3168 22.5 5.52618 22.5L11.0555 22.4864C11.2642 22.4854 11.4639 22.4059 11.6111 22.2654C11.7584 22.1249 11.841 21.9347 11.841 21.7364V17.25C11.841 17.0511 11.9242 16.8603 12.0722 16.7196C12.2203 16.579 12.4211 16.5 12.6305 16.5H15.7884C15.9977 16.5 16.1985 16.579 16.3466 16.7196C16.4946 16.8603 16.5778 17.0511 16.5778 17.25V21.7331C16.5775 21.8318 16.5977 21.9296 16.6372 22.0208C16.6767 22.1121 16.7348 22.1951 16.8082 22.265C16.8815 22.3348 16.9687 22.3903 17.0646 22.4281C17.1606 22.466 17.2634 22.4855 17.3673 22.4855L22.8946 22.5C23.104 22.5 23.3048 22.421 23.4528 22.2803C23.6009 22.1397 23.6841 21.9489 23.6841 21.75V14.0625L14.5888 6.94966C14.4819 6.86778 14.3487 6.82314 14.2114 6.82314C14.074 6.82314 13.9408 6.86778 13.8339 6.94966ZM28.2038 11.7876L24.0788 8.55748V2.06482C24.0788 1.91564 24.0164 1.77256 23.9054 1.66707C23.7943 1.56158 23.6437 1.50232 23.4867 1.50232H20.7236C20.5665 1.50232 20.4159 1.56158 20.3049 1.66707C20.1938 1.77256 20.1314 1.91564 20.1314 2.06482V5.46841L15.7138 2.0156C15.2899 1.68418 14.7579 1.50298 14.2089 1.50298C13.6599 1.50298 13.1279 1.68418 12.704 2.0156L0.214011 11.7876C0.154054 11.8347 0.104449 11.8926 0.0680307 11.9578C0.0316122 12.0231 0.00909392 12.0946 0.00176237 12.1682C-0.00556918 12.2418 0.00242972 12.316 0.025302 12.3866C0.0481744 12.4572 0.0854718 12.5229 0.135063 12.5798L1.39329 14.0329C1.44274 14.0901 1.50357 14.1374 1.5723 14.1721C1.64102 14.2069 1.71629 14.2285 1.79379 14.2356C1.87129 14.2427 1.94951 14.2352 2.02396 14.2135C2.09841 14.1919 2.16763 14.1565 2.22766 14.1094L13.8339 5.02779C13.9408 4.94591 14.074 4.90126 14.2114 4.90126C14.3487 4.90126 14.4819 4.94591 14.5888 5.02779L26.1956 14.1094C26.2555 14.1565 26.3246 14.1919 26.399 14.2136C26.4733 14.2354 26.5515 14.243 26.6289 14.236C26.7063 14.229 26.7816 14.2076 26.8503 14.173C26.919 14.1384 26.9799 14.0913 27.0295 14.0344L28.2877 12.5812C28.3372 12.524 28.3744 12.458 28.397 12.387C28.4196 12.3161 28.4272 12.2416 28.4194 12.1679C28.4116 12.0941 28.3886 12.0226 28.3516 11.9573C28.3146 11.8921 28.2643 11.8344 28.2038 11.7876Z" fill="white"/>
</g>
<defs>
<clipPath id="clip0_8_2165">
<rect width="28.4211" height="24" fill="white"/>
</clipPath>
</defs>
</svg>
