<svg width="188" height="64" viewBox="0 0 188 64" fill="none" xmlns="http://www.w3.org/2000/svg">
<path d="M160.566 23.8332C160.332 15.0005 163.692 7.97737 172.829 7.18503C174.572 7.1809 176.249 7.45591 177.859 8.01003C179.469 8.56424 179.747 8.64828 181.241 9.81074L186.219 4.63329C184.352 3.16112 182.352 2.03891 180.218 1.26664C178.084 0.494466 175.479 0.105576 172.401 0.0999756C166.754 0.122232 161.988 2.14446 158.103 6.16662C154.218 10.1889 152.194 16.0777 152.031 23.8332C152.144 31.5916 154.073 37.4915 157.818 41.5332C161.563 45.5748 166.448 47.6082 172.473 47.6332C175.875 47.5901 178.757 47.0762 181.117 46.0915C183.478 45.1068 185.416 43.9096 186.931 42.4998L183.441 38.3665C168.899 45.2329 160.814 35.8899 160.566 23.8332Z" fill="white"/>
<path d="M101.798 7.84758V0.0880127H76.6406V47.6484H101.798V39.5746H84.9876V26.1116H100.756V18.2588H84.9876V7.84758H101.798Z" fill="white"/>
<path d="M132.609 47.733V0H124.162V47.733H132.609Z" fill="white"/>
<path d="M79.8873 62.3973H76.2627V56.7554H79.8873V57.4222H76.9943V58.9682H79.8873V59.6351H76.9943V61.7304H79.8873V62.3973Z" fill="white"/>
<path d="M83.9433 61.1772C83.9433 61.5637 83.7869 61.8807 83.4741 62.1283C83.1637 62.3758 82.7388 62.4996 82.1994 62.4996C81.8939 62.4996 81.6131 62.463 81.357 62.3897C81.1033 62.3139 80.8902 62.2318 80.7178 62.1434V61.3439H80.7547C80.9739 61.5132 81.2178 61.6483 81.4863 61.7494C81.7548 61.8479 82.0122 61.8971 82.2585 61.8971C82.5639 61.8971 82.8029 61.8466 82.9753 61.7456C83.1477 61.6445 83.2339 61.4854 83.2339 61.2682C83.2339 61.1014 83.1871 60.9751 83.0935 60.8893C82.9999 60.8034 82.8201 60.7301 82.5541 60.6695C82.4555 60.6468 82.3262 60.6202 82.1661 60.5899C82.0085 60.5596 81.8644 60.5268 81.7338 60.4914C81.3717 60.3929 81.1143 60.2489 80.9616 60.0595C80.8114 59.8675 80.7362 59.6326 80.7362 59.3547C80.7362 59.1804 80.7707 59.0162 80.8397 58.8621C80.9111 58.708 81.0183 58.5704 81.1611 58.4491C81.2991 58.3304 81.474 58.2369 81.6858 58.1687C81.9001 58.098 82.139 58.0626 82.4026 58.0626C82.6489 58.0626 82.8977 58.0942 83.1489 58.1573C83.4026 58.218 83.6132 58.2925 83.7807 58.3809V59.1425H83.7438C83.5664 59.0086 83.3509 58.8962 83.0972 58.8053C82.8435 58.7118 82.5947 58.6651 82.3509 58.6651C82.0972 58.6651 81.8829 58.7156 81.708 58.8166C81.5331 58.9152 81.4456 59.0629 81.4456 59.26C81.4456 59.4343 81.4986 59.5656 81.6045 59.654C81.708 59.7424 81.8755 59.8144 82.107 59.87C82.2351 59.9003 82.378 59.9306 82.5356 59.9609C82.6957 59.9913 82.8287 60.019 82.9346 60.0443C83.2573 60.1201 83.5061 60.2502 83.681 60.4346C83.8559 60.6215 83.9433 60.869 83.9433 61.1772Z" fill="white"/>
<path d="M88.5734 60.2299C88.5734 60.5734 88.5253 60.8879 88.4293 61.1733C88.3332 61.4563 88.1977 61.6962 88.0229 61.8933C87.8603 62.0802 87.6682 62.2254 87.4465 62.329C87.2273 62.43 86.9945 62.4806 86.7482 62.4806C86.5339 62.4806 86.3393 62.4566 86.1644 62.4086C85.992 62.3606 85.8158 62.2861 85.636 62.185V63.9583H84.9414V58.1648H85.636V58.6081C85.8208 58.449 86.0277 58.3164 86.2567 58.2103C86.4883 58.1017 86.7346 58.0474 86.9957 58.0474C87.4933 58.0474 87.88 58.2406 88.1559 58.6271C88.4342 59.011 88.5734 59.5453 88.5734 60.2299ZM87.8566 60.2488C87.8566 59.7385 87.7716 59.3571 87.6017 59.1045C87.4317 58.8519 87.1706 58.7256 86.8184 58.7256C86.6188 58.7256 86.4181 58.7698 86.2161 58.8582C86.0141 58.9466 85.8208 59.0628 85.636 59.2068V61.6053C85.8331 61.6962 86.0018 61.7581 86.1422 61.7909C86.2851 61.8238 86.4464 61.8402 86.6262 61.8402C87.0129 61.8402 87.3147 61.7063 87.5315 61.4386C87.7482 61.1708 87.8566 60.7742 87.8566 60.2488Z" fill="white"/>
<path d="M92.8638 62.3973H92.1728V61.9464C92.1113 61.9894 92.0275 62.05 91.9216 62.1283C91.8182 62.2041 91.7172 62.2647 91.6186 62.3102C91.5029 62.3683 91.3698 62.4163 91.2196 62.4542C91.0693 62.4946 90.8932 62.5148 90.6912 62.5148C90.3193 62.5148 90.004 62.3885 89.7454 62.1359C89.4867 61.8833 89.3574 61.5612 89.3574 61.1697C89.3574 60.8489 89.4239 60.5899 89.5569 60.3929C89.6924 60.1933 89.8845 60.0367 90.1333 59.9231C90.3846 59.8094 90.6863 59.7323 91.0386 59.6919C91.3908 59.6515 91.7689 59.6212 92.1728 59.601V59.4911C92.1728 59.3294 92.1445 59.1956 92.0879 59.0895C92.0337 58.9834 91.9549 58.9 91.8514 58.8394C91.7529 58.7813 91.6346 58.7421 91.4967 58.7219C91.3588 58.7017 91.2147 58.6916 91.0644 58.6916C90.8821 58.6916 90.6789 58.7169 90.4548 58.7674C90.2306 58.8154 89.9991 58.8861 89.7602 58.9796H89.7232V58.2559C89.8587 58.218 90.0545 58.1763 90.3107 58.1308C90.5669 58.0854 90.8193 58.0626 91.0681 58.0626C91.3588 58.0626 91.6112 58.0879 91.8255 58.1384C92.0423 58.1864 92.2295 58.2698 92.3871 58.3885C92.5423 58.5047 92.6606 58.655 92.7418 58.8394C92.8231 59.0238 92.8638 59.2524 92.8638 59.5252V62.3973ZM92.1728 61.3553V60.1769C91.961 60.1895 91.711 60.2085 91.4228 60.2338C91.1371 60.259 90.9105 60.2957 90.743 60.3436C90.5434 60.4017 90.3821 60.4927 90.259 60.6165C90.1358 60.7377 90.0742 60.9057 90.0742 61.1204C90.0742 61.3629 90.1456 61.546 90.2885 61.6698C90.4314 61.7911 90.6494 61.8517 90.9425 61.8517C91.1863 61.8517 91.4093 61.8037 91.6112 61.7077C91.8132 61.6092 92.0004 61.4917 92.1728 61.3553Z" fill="white"/>
<path d="M97.2605 62.1321C97.1793 62.1699 97.0906 62.2091 96.9945 62.2495C96.9009 62.2874 96.8184 62.3177 96.747 62.3405C96.7544 62.3884 96.7605 62.4478 96.7655 62.5185C96.7728 62.5918 96.7765 62.6638 96.7765 62.7345C96.7765 63.1437 96.6632 63.4569 96.4366 63.6742C96.2125 63.8914 95.9206 64 95.5609 64C95.4698 64 95.3528 63.9912 95.2099 63.9735C95.0671 63.9558 94.9402 63.9318 94.8294 63.9015V63.2953H94.8626C94.9267 63.3205 95.0129 63.3496 95.1213 63.3824C95.2296 63.4153 95.3454 63.4317 95.4686 63.4317C95.7247 63.4317 95.9132 63.3824 96.0339 63.2839C96.1546 63.1854 96.2149 63.025 96.2149 62.8027C96.2149 62.7471 96.2125 62.6903 96.2075 62.6322C96.2051 62.5741 96.2014 62.5198 96.1965 62.4693C96.1571 62.4743 96.1189 62.4794 96.0819 62.4844C96.0474 62.4895 95.9994 62.492 95.9378 62.492C95.6398 62.492 95.3664 62.4478 95.1176 62.3594C94.8688 62.2684 94.6557 62.132 94.4784 61.9502C94.2986 61.7683 94.1594 61.5384 94.0609 61.2605C93.9624 60.9827 93.9131 60.6581 93.9131 60.2868C93.9131 59.5946 94.0978 59.0516 94.4673 58.6575C94.8392 58.2634 95.3294 58.0664 95.9378 58.0664C96.1743 58.0664 96.4058 58.1005 96.6324 58.1687C96.8615 58.2369 97.0709 58.3203 97.2606 58.4188V59.2107H97.2236C97.0118 59.0414 96.7926 58.9114 96.5659 58.8204C96.3418 58.7295 96.1226 58.684 95.9083 58.684C95.5142 58.684 95.2026 58.8204 94.9735 59.0932C94.7469 59.3635 94.6336 59.7614 94.6336 60.2868C94.6336 60.797 94.7444 61.1898 94.9661 61.4652C95.1902 61.738 95.5043 61.8744 95.9083 61.8744C96.0487 61.8744 96.1915 61.8554 96.3369 61.8175C96.4822 61.7796 96.6127 61.7304 96.7285 61.6698C96.8295 61.6167 96.9243 61.5611 97.013 61.503C97.1017 61.4424 97.1719 61.3906 97.2236 61.3477H97.2606L97.2605 62.1321Z" fill="white"/>
<path d="M101.672 60.2829C101.672 60.9725 101.499 61.5169 101.154 61.916C100.81 62.3151 100.348 62.5147 99.7688 62.5147C99.185 62.5147 98.7207 62.3151 98.3759 61.916C98.0335 61.5169 97.8623 60.9725 97.8623 60.2829C97.8623 59.5933 98.0335 59.0489 98.3759 58.6498C98.7207 58.2482 99.185 58.0474 99.7688 58.0474C100.348 58.0474 100.81 58.2482 101.154 58.6498C101.499 59.0489 101.672 59.5933 101.672 60.2829ZM100.955 60.2829C100.955 59.7348 100.85 59.3281 100.641 59.0628C100.431 58.7951 100.141 58.6612 99.7688 58.6612C99.3919 58.6612 99.0988 58.7951 98.8895 59.0628C98.6826 59.3281 98.5791 59.7348 98.5791 60.2829C98.5791 60.8134 98.6838 61.2163 98.8931 61.4916C99.1025 61.7645 99.3944 61.9009 99.7688 61.9009C100.138 61.9009 100.428 61.7657 100.637 61.4954C100.849 61.2226 100.955 60.8184 100.955 60.2829Z" fill="white"/>
<path d="M107.406 62.3973H105.233V61.8214H105.954V57.3313H105.233V56.7554H107.406V57.3313H106.685V61.8214H107.406V62.3973Z" fill="white"/>
<path d="M112.054 62.3972H111.36V59.9874C111.36 59.7929 111.349 59.611 111.327 59.4417C111.304 59.27 111.264 59.1361 111.205 59.0401C111.143 58.934 111.054 58.8557 110.939 58.8052C110.823 58.7521 110.673 58.7256 110.488 58.7256C110.298 58.7256 110.1 58.7736 109.893 58.8696C109.686 58.9656 109.488 59.0881 109.298 59.2371V62.3972H108.604V58.1648H109.298V58.6347C109.515 58.4503 109.739 58.3063 109.971 58.2027C110.202 58.0992 110.44 58.0474 110.684 58.0474C111.129 58.0474 111.469 58.185 111.703 58.4604C111.937 58.7357 112.054 59.1323 112.054 59.6501V62.3972Z" fill="white"/>
<path d="M115.534 62.3594C115.403 62.3948 115.261 62.4238 115.105 62.4466C114.953 62.4693 114.816 62.4807 114.695 62.4807C114.274 62.4807 113.954 62.3645 113.735 62.1321C113.515 61.8997 113.406 61.5271 113.406 61.0143V58.7637H112.937V58.165H113.406V56.9487H114.1V58.165H115.534V58.7637H114.1V60.6923C114.1 60.9145 114.105 61.0888 114.115 61.2151C114.125 61.3389 114.159 61.4551 114.219 61.5637C114.273 61.6648 114.347 61.7393 114.44 61.7873C114.536 61.8327 114.682 61.8555 114.876 61.8555C114.99 61.8555 115.108 61.8391 115.231 61.8062C115.354 61.7709 115.443 61.7418 115.497 61.7191H115.534V62.3594Z" fill="white"/>
<path d="M119.831 60.3549H116.791C116.791 60.6151 116.829 60.8424 116.905 61.0369C116.982 61.2289 117.086 61.3868 117.219 61.5105C117.347 61.6318 117.499 61.7227 117.674 61.7834C117.851 61.844 118.046 61.8743 118.258 61.8743C118.538 61.8743 118.82 61.8175 119.104 61.7038C119.389 61.5876 119.593 61.4739 119.713 61.3628H119.75V62.1395C119.516 62.2406 119.277 62.3252 119.033 62.3934C118.79 62.4616 118.533 62.4957 118.265 62.4957C117.58 62.4957 117.046 62.3062 116.661 61.9273C116.277 61.5459 116.085 61.0053 116.085 60.3056C116.085 59.6135 116.268 59.0641 116.635 58.6574C117.005 58.2507 117.49 58.0474 118.091 58.0474C118.648 58.0474 119.077 58.2141 119.377 58.5475C119.68 58.881 119.831 59.3546 119.831 59.9684V60.3549ZM119.155 59.8093C119.153 59.4354 119.061 59.1462 118.878 58.9416C118.698 58.737 118.424 58.6347 118.054 58.6347C117.682 58.6347 117.386 58.7471 117.164 58.9719C116.945 59.1967 116.82 59.4758 116.791 59.8093H119.155Z" fill="white"/>
<path d="M123.46 58.9417H123.423C123.32 58.9164 123.219 58.8987 123.12 58.8886C123.024 58.876 122.909 58.8697 122.776 58.8697C122.562 58.8697 122.355 58.919 122.156 59.0175C121.956 59.1135 121.764 59.2385 121.579 59.3926V62.3974H120.885V58.1649H121.579V58.7901C121.855 58.5628 122.098 58.4024 122.307 58.3089C122.519 58.2129 122.735 58.1649 122.954 58.1649C123.075 58.1649 123.162 58.1687 123.216 58.1763C123.27 58.1813 123.352 58.1927 123.46 58.2104V58.9417Z" fill="white"/>
<path d="M127.195 62.3973H126.504V61.9464C126.442 61.9894 126.359 62.05 126.253 62.1283C126.149 62.2041 126.048 62.2647 125.95 62.3102C125.834 62.3683 125.701 62.4163 125.551 62.4542C125.4 62.4946 125.224 62.5148 125.022 62.5148C124.65 62.5148 124.335 62.3885 124.076 62.1359C123.818 61.8833 123.688 61.5612 123.688 61.1697C123.688 60.8489 123.755 60.5899 123.888 60.3929C124.023 60.1933 124.216 60.0367 124.464 59.9231C124.716 59.8094 125.017 59.7323 125.37 59.6919C125.722 59.6515 126.1 59.6212 126.504 59.601V59.4911C126.504 59.3294 126.476 59.1956 126.419 59.0895C126.365 58.9834 126.286 58.9 126.182 58.8394C126.084 58.7813 125.966 58.7421 125.828 58.7219C125.69 58.7017 125.546 58.6916 125.395 58.6916C125.213 58.6916 125.01 58.7169 124.786 58.7674C124.562 58.8154 124.33 58.8861 124.091 58.9796H124.054V58.2559C124.19 58.218 124.386 58.1763 124.642 58.1308C124.898 58.0854 125.15 58.0626 125.399 58.0626C125.69 58.0626 125.942 58.0879 126.157 58.1384C126.373 58.1864 126.561 58.2698 126.718 58.3885C126.873 58.5047 126.992 58.655 127.073 58.8394C127.154 59.0238 127.195 59.2524 127.195 59.5252V62.3973ZM126.504 61.3553V60.1769C126.292 60.1895 126.042 60.2085 125.754 60.2338C125.468 60.259 125.242 60.2957 125.074 60.3436C124.875 60.4017 124.713 60.4927 124.59 60.6165C124.467 60.7377 124.405 60.9057 124.405 61.1204C124.405 61.3629 124.477 61.546 124.62 61.6698C124.762 61.7911 124.98 61.8517 125.274 61.8517C125.517 61.8517 125.74 61.8037 125.942 61.7077C126.144 61.6092 126.331 61.4917 126.504 61.3553Z" fill="white"/>
<path d="M130.683 62.3594C130.553 62.3948 130.41 62.4238 130.255 62.4466C130.102 62.4693 129.965 62.4807 129.845 62.4807C129.423 62.4807 129.103 62.3645 128.884 62.1321C128.665 61.8997 128.555 61.5271 128.555 61.0143V58.7637H128.086V58.165H128.555V56.9487H129.25V58.165H130.683V58.7637H129.25V60.6923C129.25 60.9145 129.255 61.0888 129.265 61.2151C129.274 61.3389 129.309 61.4551 129.368 61.5637C129.422 61.6648 129.496 61.7393 129.59 61.7873C129.686 61.8327 129.831 61.8555 130.026 61.8555C130.139 61.8555 130.257 61.8391 130.38 61.8062C130.504 61.7709 130.592 61.7418 130.646 61.7191H130.683L130.683 62.3594Z" fill="white"/>
<path d="M132.272 57.4564H131.488V56.7175H132.272V57.4564ZM132.227 62.3973H131.533V58.165H132.227V62.3973Z" fill="white"/>
<path d="M137.179 58.1649L135.509 62.3974H134.81L133.151 58.1649H133.905L135.183 61.5334L136.451 58.1649H137.179Z" fill="white"/>
<path d="M141.546 60.2829C141.546 60.9725 141.373 61.5169 141.028 61.916C140.684 62.3151 140.222 62.5147 139.643 62.5147C139.059 62.5147 138.595 62.3151 138.25 61.916C137.908 61.5169 137.736 60.9725 137.736 60.2829C137.736 59.5933 137.908 59.0489 138.25 58.6498C138.595 58.2482 139.059 58.0474 139.643 58.0474C140.222 58.0474 140.684 58.2482 141.028 58.6498C141.373 59.0489 141.546 59.5933 141.546 60.2829ZM140.829 60.2829C140.829 59.7348 140.724 59.3281 140.515 59.0628C140.305 58.7951 140.015 58.6612 139.643 58.6612C139.266 58.6612 138.973 58.7951 138.763 59.0628C138.557 59.3281 138.453 59.7348 138.453 60.2829C138.453 60.8134 138.558 61.2163 138.767 61.4916C138.977 61.7645 139.268 61.9009 139.643 61.9009C140.012 61.9009 140.302 61.7657 140.511 61.4954C140.723 61.2226 140.829 60.8184 140.829 60.2829Z" fill="white"/>
<path d="M148.632 62.3974H147.937V61.9541C147.738 62.1309 147.53 62.2686 147.313 62.3671C147.096 62.4656 146.861 62.5149 146.607 62.5149C146.115 62.5149 145.723 62.3204 145.432 61.9313C145.144 61.5423 145 61.003 145 60.3134C145 59.9547 145.049 59.6352 145.148 59.3548C145.249 59.0744 145.384 58.8357 145.554 58.6386C145.722 58.4467 145.916 58.3001 146.138 58.1991C146.362 58.0981 146.594 58.0475 146.833 58.0475C147.049 58.0475 147.242 58.0715 147.409 58.1195C147.577 58.165 147.753 58.237 147.937 58.3355V56.5016H148.632V62.3974ZM147.937 61.3554V58.9266C147.75 58.8407 147.583 58.7814 147.435 58.7485C147.287 58.7157 147.126 58.6993 146.951 58.6993C146.562 58.6993 146.259 58.8382 146.042 59.1161C145.825 59.3939 145.717 59.788 145.717 60.2983C145.717 60.8009 145.801 61.1836 145.968 61.4463C146.136 61.7065 146.404 61.8366 146.774 61.8366C146.971 61.8366 147.17 61.7924 147.372 61.704C147.574 61.6131 147.762 61.4969 147.937 61.3554Z" fill="white"/>
<path d="M153.454 60.3549H150.413C150.413 60.6151 150.451 60.8424 150.527 61.0369C150.604 61.2289 150.708 61.3868 150.841 61.5105C150.969 61.6318 151.121 61.7227 151.296 61.7834C151.473 61.844 151.668 61.8743 151.88 61.8743C152.16 61.8743 152.442 61.8175 152.726 61.7038C153.011 61.5876 153.215 61.4739 153.335 61.3628H153.372V62.1395C153.138 62.2406 152.899 62.3252 152.655 62.3934C152.412 62.4616 152.155 62.4957 151.887 62.4957C151.202 62.4957 150.668 62.3062 150.283 61.9273C149.899 61.5459 149.707 61.0053 149.707 60.3056C149.707 59.6135 149.891 59.0641 150.258 58.6574C150.627 58.2507 151.112 58.0474 151.713 58.0474C152.27 58.0474 152.699 58.2141 152.999 58.5475C153.302 58.881 153.454 59.3546 153.454 59.9684V60.3549ZM152.777 59.8093C152.775 59.4354 152.683 59.1462 152.5 58.9416C152.32 58.737 152.046 58.6347 151.676 58.6347C151.304 58.6347 151.008 58.7471 150.786 58.9719C150.567 59.1967 150.442 59.4758 150.413 59.8093H152.777Z" fill="white"/>
<path d="M161.472 61.988C161.337 62.0487 161.214 62.1055 161.103 62.1585C160.994 62.2116 160.852 62.2672 160.674 62.3253C160.524 62.3733 160.36 62.4137 160.183 62.4465C160.008 62.4819 159.815 62.4996 159.603 62.4996C159.204 62.4996 158.84 62.4427 158.513 62.329C158.188 62.2129 157.904 62.0322 157.663 61.7872C157.426 61.5472 157.242 61.2429 157.109 60.8741C156.976 60.5027 156.909 60.072 156.909 59.582C156.909 59.1172 156.973 58.7017 157.101 58.3354C157.229 57.9691 157.414 57.6597 157.656 57.4071C157.89 57.1621 158.172 56.9751 158.502 56.8463C158.834 56.7175 159.202 56.6531 159.606 56.6531C159.902 56.6531 160.196 56.6897 160.489 56.763C160.785 56.8362 161.113 56.965 161.472 57.1494V58.0399H161.417C161.114 57.7797 160.813 57.5902 160.515 57.4715C160.217 57.3528 159.898 57.2934 159.558 57.2934C159.28 57.2934 159.029 57.3402 158.805 57.4336C158.583 57.5246 158.385 57.6673 158.21 57.8618C158.04 58.0512 157.907 58.2912 157.811 58.5817C157.717 58.8697 157.67 59.2031 157.67 59.582C157.67 59.9786 157.722 60.3196 157.825 60.605C157.931 60.8905 158.067 61.1229 158.232 61.3022C158.404 61.4891 158.605 61.6281 158.834 61.719C159.066 61.8074 159.31 61.8516 159.566 61.8516C159.918 61.8516 160.248 61.7897 160.556 61.666C160.864 61.5422 161.152 61.3565 161.42 61.109H161.472V61.988Z" fill="white"/>
<path d="M163.204 57.4564H162.421V56.7175H163.204V57.4564ZM163.16 62.3973H162.465V58.165H163.16V62.3973Z" fill="white"/>
<path d="M167.996 60.355H164.956C164.956 60.6152 164.994 60.8425 165.07 61.0371C165.147 61.229 165.251 61.3869 165.384 61.5107C165.512 61.6319 165.664 61.7229 165.839 61.7835C166.016 61.8441 166.211 61.8744 166.423 61.8744C166.703 61.8744 166.985 61.8176 167.269 61.7039C167.554 61.5877 167.758 61.4741 167.878 61.3629H167.915V62.1397C167.681 62.2407 167.442 62.3253 167.198 62.3935C166.955 62.4617 166.698 62.4958 166.43 62.4958C165.745 62.4958 165.211 62.3064 164.826 61.9275C164.442 61.546 164.25 61.0055 164.25 60.3058C164.25 59.6136 164.434 59.0642 164.801 58.6575C165.17 58.2508 165.655 58.0475 166.256 58.0475C166.813 58.0475 167.242 58.2142 167.542 58.5476C167.845 58.8811 167.996 59.3547 167.996 59.9685V60.355ZM167.32 59.8094C167.318 59.4355 167.226 59.1463 167.043 58.9417C166.863 58.7371 166.589 58.6348 166.219 58.6348C165.847 58.6348 165.551 58.7472 165.329 58.972C165.11 59.1968 164.985 59.476 164.956 59.8094H167.32ZM167.501 57.4829H166.914L166.23 56.5129L165.551 57.4829H164.978L165.82 56.0469H166.659L167.501 57.4829Z" fill="white"/>
<path d="M172.501 62.3972H171.806V59.9874C171.806 59.7929 171.795 59.611 171.773 59.4417C171.751 59.27 171.71 59.1361 171.651 59.0401C171.589 58.934 171.501 58.8557 171.385 58.8052C171.269 58.7521 171.119 58.7256 170.934 58.7256C170.744 58.7256 170.546 58.7736 170.339 58.8696C170.132 58.9656 169.934 59.0881 169.744 59.2371V62.3972H169.05V58.1648H169.744V58.6347C169.961 58.4503 170.185 58.3063 170.417 58.2027C170.648 58.0992 170.886 58.0474 171.13 58.0474C171.576 58.0474 171.916 58.185 172.15 58.4604C172.384 58.7357 172.501 59.1323 172.501 59.6501V62.3972Z" fill="white"/>
<path d="M176.889 62.1321C176.658 62.2458 176.437 62.3342 176.228 62.3973C176.021 62.4605 175.801 62.492 175.567 62.492C175.269 62.492 174.995 62.4478 174.746 62.3594C174.498 62.2685 174.285 62.1321 174.107 61.9502C173.927 61.7683 173.788 61.5385 173.69 61.2606C173.591 60.9827 173.542 60.6581 173.542 60.2868C173.542 59.5947 173.727 59.0516 174.096 58.6575C174.468 58.2634 174.958 58.0664 175.567 58.0664C175.803 58.0664 176.035 58.1005 176.261 58.1687C176.49 58.2369 176.7 58.3203 176.889 58.4188V59.2107H176.853C176.641 59.0415 176.421 58.9114 176.195 58.8204C175.971 58.7295 175.751 58.684 175.537 58.684C175.143 58.684 174.831 58.8204 174.602 59.0932C174.376 59.3635 174.262 59.7614 174.262 60.2868C174.262 60.7971 174.373 61.1899 174.595 61.4652C174.819 61.738 175.133 61.8744 175.537 61.8744C175.678 61.8744 175.82 61.8555 175.966 61.8176C176.111 61.7797 176.242 61.7304 176.357 61.6698C176.458 61.6168 176.553 61.5612 176.642 61.5031C176.731 61.4425 176.801 61.3907 176.853 61.3477H176.889V62.1321Z" fill="white"/>
<path d="M178.53 57.4564H177.747V56.7175H178.53V57.4564ZM178.486 62.3973H177.791V58.165H178.486V62.3973Z" fill="white"/>
<path d="M183.075 62.3973H182.384V61.9464C182.322 61.9894 182.238 62.05 182.133 62.1283C182.029 62.2041 181.928 62.2647 181.83 62.3102C181.714 62.3683 181.581 62.4163 181.431 62.4542C181.28 62.4946 181.104 62.5148 180.902 62.5148C180.53 62.5148 180.215 62.3885 179.956 62.1359C179.698 61.8833 179.568 61.5612 179.568 61.1697C179.568 60.8489 179.635 60.5899 179.768 60.3929C179.903 60.1933 180.095 60.0367 180.344 59.9231C180.595 59.8094 180.897 59.7323 181.249 59.6919C181.602 59.6515 181.98 59.6212 182.384 59.601V59.4911C182.384 59.3294 182.355 59.1956 182.299 59.0895C182.245 58.9834 182.166 58.9 182.062 58.8394C181.964 58.7813 181.846 58.7421 181.708 58.7219C181.57 58.7017 181.426 58.6916 181.275 58.6916C181.093 58.6916 180.89 58.7169 180.666 58.7674C180.442 58.8154 180.21 58.8861 179.971 58.9796H179.934V58.2559C180.07 58.218 180.265 58.1763 180.522 58.1308C180.778 58.0854 181.03 58.0626 181.279 58.0626C181.57 58.0626 181.822 58.0879 182.036 58.1384C182.253 58.1864 182.44 58.2698 182.598 58.3885C182.753 58.5047 182.871 58.655 182.953 58.8394C183.034 59.0238 183.075 59.2524 183.075 59.5252V62.3973ZM182.384 61.3553V60.1769C182.172 60.1895 181.922 60.2085 181.634 60.2338C181.348 60.259 181.121 60.2957 180.954 60.3436C180.754 60.4017 180.593 60.4927 180.47 60.6165C180.347 60.7377 180.285 60.9057 180.285 61.1204C180.285 61.3629 180.357 61.546 180.499 61.6698C180.642 61.7911 180.86 61.8517 181.153 61.8517C181.397 61.8517 181.62 61.8037 181.822 61.7077C182.024 61.6092 182.211 61.4917 182.384 61.3553Z" fill="white"/>
<path d="M187.368 61.1772C187.368 61.5637 187.212 61.8807 186.899 62.1283C186.589 62.3758 186.164 62.4996 185.624 62.4996C185.319 62.4996 185.038 62.463 184.782 62.3897C184.528 62.3139 184.315 62.2318 184.143 62.1434V61.3439H184.18C184.399 61.5132 184.643 61.6483 184.911 61.7494C185.18 61.8479 185.437 61.8971 185.683 61.8971C185.989 61.8971 186.228 61.8466 186.4 61.7456C186.573 61.6445 186.659 61.4854 186.659 61.2682C186.659 61.1014 186.612 60.9751 186.518 60.8893C186.425 60.8034 186.245 60.7301 185.979 60.6695C185.88 60.6468 185.751 60.6202 185.591 60.5899C185.433 60.5596 185.289 60.5268 185.159 60.4914C184.797 60.3929 184.539 60.2489 184.386 60.0595C184.236 59.8675 184.161 59.6326 184.161 59.3547C184.161 59.1804 184.196 59.0162 184.265 58.8621C184.336 58.708 184.443 58.5704 184.586 58.4491C184.724 58.3304 184.899 58.2369 185.111 58.1687C185.325 58.098 185.564 58.0626 185.827 58.0626C186.074 58.0626 186.322 58.0942 186.574 58.1573C186.827 58.218 187.038 58.2925 187.206 58.3809V59.1425H187.169C186.991 59.0086 186.776 58.8962 186.522 58.8053C186.268 58.7118 186.02 58.6651 185.776 58.6651C185.522 58.6651 185.308 58.7156 185.133 58.8166C184.958 58.9152 184.87 59.0629 184.87 59.26C184.87 59.4343 184.923 59.5656 185.029 59.654C185.133 59.7424 185.3 59.8144 185.532 59.87C185.66 59.9003 185.803 59.9306 185.96 59.9609C186.121 59.9913 186.254 60.019 186.359 60.0443C186.682 60.1201 186.931 60.2502 187.106 60.4346C187.281 60.6215 187.368 60.869 187.368 61.1772Z" fill="white"/>
<path d="M0 0.36853V63.9777H67.871V0.36853H0ZM33.9011 4.3441C36.1818 4.3441 38.0873 6.81642 36.9977 8.81911C36.5324 9.67431 36.2442 10.3237 36.0406 10.8268H47.8544V19.096C47.3184 18.8973 46.6229 18.6031 45.7149 18.117C43.6646 17.0194 41.0339 18.8292 40.9559 20.9297H26.8038C26.7258 18.8292 24.0951 17.0194 22.0448 18.117C21.167 18.5869 20.4894 18.8753 19.961 19.0736C19.961 19.0749 19.961 19.0755 19.961 19.0761C19.7494 19.5789 19.4364 20.2325 18.9191 21.0838C17.7496 23.008 19.6768 25.4757 21.9149 25.5488V38.8297C19.6768 38.9029 17.7496 41.3731 18.9191 43.2973C19.4242 44.1284 19.7311 44.7674 19.9424 45.2652C20.4735 45.4636 21.1569 45.7539 22.0448 46.2293C24.0951 47.3268 26.7258 45.5171 26.8038 43.4165H40.9559C41.0339 45.5171 43.6646 47.3268 45.7149 46.2293C46.6229 45.7432 47.3184 45.4489 47.8544 45.2503V53.5219H36.0406C36.2442 54.025 36.5324 54.6744 36.9977 55.5296C38.0873 57.5323 36.1818 60.0021 33.9011 60.0021C31.6203 60.0021 29.6147 57.4829 30.8018 55.5296C31.3198 54.6772 31.6347 54.025 31.8464 53.5219H19.9053V45.3049H11.1484V34.2156C10.6123 34.4067 9.92004 34.6784 9.00883 35.1151C6.87494 36.1377 4.24194 34.3485 4.24194 32.2079C4.24194 30.0673 6.92761 28.1866 9.00883 29.3008C9.91707 29.787 10.6123 30.0811 11.1484 30.2798V19.0736H19.9053V10.8268H31.8464C31.6347 10.3237 31.3198 9.67153 30.8018 8.81912C29.6147 6.86584 31.6203 4.34411 33.9011 4.34411V4.3441ZM47.9127 19.0736H56.7227V30.2797C57.2587 30.0811 57.954 29.787 58.8622 29.3008C60.9434 28.1866 63.6291 30.0673 63.6291 32.2079C63.6291 34.3485 60.9961 36.1377 58.8622 35.1151C57.951 34.6784 57.2587 34.4067 56.7227 34.2156V45.3049H47.9127C48.1243 44.8019 48.4367 44.1495 48.9546 43.2973C50.1241 41.373 48.1969 38.9029 45.9588 38.8297V25.5488C48.1969 25.4757 50.1241 23.008 48.9546 21.0838C48.4366 20.2314 48.1243 19.5767 47.9127 19.0736Z" fill="white"/>
</svg>
