<svg width="25" height="32" viewBox="0 0 25 32" fill="none" xmlns="http://www.w3.org/2000/svg">
<g clip-path="url(#clip0)">
<path d="M6.49835 22.6644C5.95523 22.1213 6.23835 22.2744 4.92835 21.9238C4.33398 21.7644 3.81148 21.4581 3.33897 21.0913L0.503346 28.0438C0.228971 28.7169 0.741472 29.4481 1.46772 29.4206L4.76085 29.295L7.02585 31.6875C7.52586 32.215 8.40336 32.0506 8.67773 31.3775L11.9309 23.4013C11.2534 23.7788 10.5015 24 9.72398 24C8.50523 24 7.36023 23.5256 6.49835 22.6644ZM24.3534 28.0438L21.5177 21.0913C21.0452 21.4588 20.5227 21.7644 19.9284 21.9238C18.6115 22.2763 18.9002 22.1225 18.3584 22.6644C17.4965 23.5256 16.3509 24 15.1321 24C14.3546 24 13.6027 23.7781 12.9252 23.4013L16.1784 31.3775C16.4527 32.0506 17.3309 32.215 17.8302 31.6875L20.0959 29.295L23.389 29.4206C24.1153 29.4481 24.6278 28.7163 24.3534 28.0438ZM16.8659 21.25C17.8209 20.2781 17.9302 20.3619 19.2902 19.9913C20.1584 19.7544 20.8371 19.0638 21.0696 18.18C21.5371 16.405 21.4159 16.6194 22.6915 15.3206C23.3271 14.6738 23.5753 13.7306 23.3428 12.8469C22.8759 11.0731 22.8753 11.3206 23.3428 9.54501C23.5753 8.66126 23.3271 7.71814 22.6915 7.07126C21.4159 5.77251 21.5371 5.98626 21.0696 4.21189C20.8371 3.32814 20.1584 2.63752 19.2902 2.40064C17.5477 1.92502 17.7577 2.04939 16.4809 0.750015C15.8452 0.103141 14.9184 -0.149984 14.0502 0.0868906C12.3084 0.561891 12.5515 0.562516 10.8065 0.0868906C9.93836 -0.149984 9.01148 0.102516 8.37586 0.750015C7.10023 2.04877 7.31023 1.92502 5.5671 2.40064C4.69898 2.63752 4.02023 3.32814 3.78773 4.21189C3.32085 5.98626 3.44148 5.77251 2.16585 7.07126C1.53022 7.71814 1.28147 8.66126 1.5146 9.54501C1.98147 11.3175 1.9821 11.07 1.5146 12.8463C1.2821 13.73 1.53022 14.6731 2.16585 15.3206C3.44148 16.6194 3.32023 16.405 3.78773 18.18C4.02023 19.0638 4.69898 19.7544 5.5671 19.9913C6.96585 20.3725 7.07023 20.3125 7.99086 21.25C8.81773 22.0919 10.1059 22.2425 11.0996 21.6138C11.497 21.3615 11.958 21.2275 12.4287 21.2275C12.8994 21.2275 13.3604 21.3615 13.7577 21.6138C14.7509 22.2425 16.039 22.0919 16.8659 21.25ZM6.5321 10.9975C6.5321 7.68314 9.17211 4.99626 12.4284 4.99626C15.6846 4.99626 18.3246 7.68314 18.3246 10.9975C18.3246 14.3119 15.6846 16.9988 12.4284 16.9988C9.17211 16.9988 6.5321 14.3119 6.5321 10.9975Z" fill="white"/>
</g>
<defs>
<clipPath id="clip0">
<rect width="24" height="32" fill="white" transform="translate(0.428467)"/>
</clipPath>
</defs>
</svg>
