<svg width="23" height="24" viewBox="0 0 23 24" fill="none" xmlns="http://www.w3.org/2000/svg">
<path fill-rule="evenodd" clip-rule="evenodd" d="M13.8188 5.25C13.8188 5.05109 13.746 4.86032 13.6164 4.71967C13.4868 4.57902 13.3111 4.5 13.1278 4.5H2.07281C1.88956 4.5 1.71382 4.57902 1.58425 4.71967C1.45467 4.86032 1.38188 5.05109 1.38188 5.25V18.75C1.38188 18.9489 1.45467 19.1397 1.58425 19.2803C1.71382 19.421 1.88956 19.5 2.07281 19.5H13.1278C13.3111 19.5 13.4868 19.421 13.6164 19.2803C13.746 19.1397 13.8188 18.9489 13.8188 18.75V15.75C13.8188 15.5511 13.8915 15.3603 14.0211 15.2197C14.1507 15.079 14.3264 15 14.5097 15C14.6929 15 14.8687 15.079 14.9983 15.2197C15.1278 15.3603 15.2006 15.5511 15.2006 15.75V18.75C15.2006 19.3467 14.9822 19.919 14.5935 20.341C14.2048 20.7629 13.6776 21 13.1278 21H2.07281C1.52307 21 0.99584 20.7629 0.607113 20.341C0.218385 19.919 0 19.3467 0 18.75L0 5.25C0 4.65326 0.218385 4.08097 0.607113 3.65901C0.99584 3.23705 1.52307 3 2.07281 3H13.1278C13.6776 3 14.2048 3.23705 14.5935 3.65901C14.9822 4.08097 15.2006 4.65326 15.2006 5.25V8.25C15.2006 8.44891 15.1278 8.63968 14.9983 8.78033C14.8687 8.92098 14.6929 9 14.5097 9C14.3264 9 14.1507 8.92098 14.0211 8.78033C13.8915 8.63968 13.8188 8.44891 13.8188 8.25V5.25Z" fill="white"/>
<path fill-rule="evenodd" clip-rule="evenodd" d="M5.72925 12.531C5.66491 12.4613 5.61386 12.3785 5.57903 12.2874C5.54419 12.1963 5.52627 12.0986 5.52627 12C5.52627 11.9013 5.54419 11.8036 5.57903 11.7125C5.61386 11.6214 5.66491 11.5386 5.72925 11.469L9.87488 6.96897C10.0046 6.82814 10.1806 6.74902 10.3641 6.74902C10.5475 6.74902 10.7235 6.82814 10.8532 6.96897C10.983 7.1098 11.0559 7.30081 11.0559 7.49997C11.0559 7.69913 10.983 7.89014 10.8532 8.03097L7.88636 11.25H20.0372C20.2204 11.25 20.3962 11.329 20.5258 11.4696C20.6553 11.6103 20.7281 11.8011 20.7281 12C20.7281 12.1989 20.6553 12.3896 20.5258 12.5303C20.3962 12.671 20.2204 12.75 20.0372 12.75H7.88636L10.8532 15.969C10.9175 16.0387 10.9684 16.1215 11.0032 16.2126C11.038 16.3037 11.0559 16.4014 11.0559 16.5C11.0559 16.5986 11.038 16.6962 11.0032 16.7873C10.9684 16.8785 10.9175 16.9612 10.8532 17.031C10.789 17.1007 10.7127 17.156 10.6288 17.1938C10.5449 17.2315 10.4549 17.2509 10.3641 17.2509C10.2732 17.2509 10.1833 17.2315 10.0993 17.1938C10.0154 17.156 9.93912 17.1007 9.87488 17.031L5.72925 12.531Z" fill="white"/>
</svg>
