<svg width="19" height="24" viewBox="0 0 19 24" fill="none" xmlns="http://www.w3.org/2000/svg">
<g clip-path="url(#clip0_8_2161)">
<path d="M9.96823 0C6.02979 0 3.47885 1.53295 1.47611 4.26684C1.1128 4.76278 1.22481 5.44275 1.7316 5.80781L3.86012 7.34105C4.37195 7.70972 5.10019 7.62352 5.50089 7.14661C6.73686 5.67562 7.65369 4.82869 9.5843 4.82869C11.1023 4.82869 12.9798 5.75677 12.9798 7.15514C12.9798 8.21227 12.0612 8.75517 10.5624 9.55345C8.81456 10.4844 6.5016 11.643 6.5016 14.5412V15C6.5016 15.6213 7.03178 16.125 7.68581 16.125H11.2617C11.9157 16.125 12.4459 15.6213 12.4459 15V14.7294C12.4459 12.7203 18.6269 12.6367 18.6269 7.2C18.6269 3.10575 14.1564 0 9.96823 0ZM9.47377 17.5059C7.5891 17.5059 6.0558 18.9625 6.0558 20.753C6.0558 22.5434 7.5891 24 9.47377 24C11.3584 24 12.8917 22.5434 12.8917 20.7529C12.8917 18.9625 11.3584 17.5059 9.47377 17.5059Z" fill="white"/>
</g>
<defs>
<clipPath id="clip0_8_2161">
<rect width="18.9474" height="24" fill="white"/>
</clipPath>
</defs>
</svg>
