<svg width="23" height="28" viewBox="0 0 23 28" fill="none" xmlns="http://www.w3.org/2000/svg">
<path d="M11.8928 0C7.29795 0 4.32185 1.78845 1.98531 4.97798C1.56146 5.55658 1.69213 6.34987 2.28339 6.77578L4.76666 8.56455C5.36379 8.99467 6.21341 8.8941 6.6809 8.33771C8.12286 6.62156 9.19249 5.63347 11.4449 5.63347C13.2158 5.63347 15.4063 6.71623 15.4063 8.34766C15.4063 9.58098 14.3346 10.2144 12.586 11.1457C10.5468 12.2318 7.84839 13.5834 7.84839 16.9647V17.5C7.84839 18.2249 8.46694 18.8125 9.22997 18.8125H13.4018C14.1649 18.8125 14.7834 18.2249 14.7834 17.5V17.1843C14.7834 14.8404 21.9946 14.7428 21.9946 8.4C21.9946 3.62338 16.779 0 11.8928 0ZM11.3159 20.4235C9.11714 20.4235 7.32828 22.123 7.32828 24.2118C7.32828 26.3006 9.11714 28 11.3159 28C13.5147 28 15.3036 26.3006 15.3036 24.2117C15.3036 22.1229 13.5147 20.4235 11.3159 20.4235Z" fill="white"/>
</svg>
